<svg width="511.997" height="511.997" xmlns="http://www.w3.org/2000/svg">

 <g>
  <title>background</title>
  <rect fill="none" id="canvas_background" height="258" width="258" y="-1" x="-1"/>
 </g>
 <g>
  <title>Layer 1</title>
  <circle id="svg_1" fill="#00ab91" r="255.999" cy="255.999" cx="255.999"/>
  <rect id="svg_2" fill="#FF5B62" height="422.792" width="325.832" y="68.965" x="61.08"/>
  <polygon id="svg_3" fill="#DCE3DB" points="72.807,83.594 365.28,83.594 375.195,479.038 82.721,479.038 "/>
  <rect id="svg_4" fill="#FFFFFF" height="385.724" width="287.587" y="83.596" x="77.688"/>
  <path id="svg_5" fill="#666666" d="m186.259,58.687l78.761,0c5.671,0 10.314,4.64 10.314,10.314l0,33.853l-99.388,0l0,-33.853c-0.001,-5.671 4.64,-10.314 10.313,-10.314z"/>
  <path id="svg_6" fill="#B0B0B0" d="m173.816,100.299l103.644,0c2.194,0 3.971,1.778 3.971,3.97l0,0c0,2.193 -1.778,3.97 -3.971,3.97l-103.644,0c-2.194,0 -3.971,-1.778 -3.971,-3.97l0,0c-0.001,-2.193 1.778,-3.97 3.971,-3.97z"/>
  <path id="svg_7" fill="#FEFEFE" d="m215.28,48.41l-8.384,51.885l-4.315,0l8.36,-51.755c-2.376,-3.298 -3.586,-7.25 -3.586,-11.129c0,-2.486 0.496,-4.955 1.495,-7.213c1.012,-2.282 2.539,-4.346 4.588,-6.001c6.523,-5.265 17.836,-5.27 24.362,-0.003c2.056,1.661 3.588,3.733 4.603,6.02c1.005,2.267 1.503,4.743 1.503,7.24c0,3.866 -1.199,7.804 -3.567,11.087l8.36,51.757l-4.315,0l-8.384,-51.885c-0.126,-0.659 0.068,-1.303 0.472,-1.776c2.12,-2.652 3.192,-5.943 3.192,-9.183c0,-1.922 -0.377,-3.814 -1.139,-5.532c-0.751,-1.692 -1.875,-3.216 -3.378,-4.427c-4.96,-4.003 -14.098,-3.995 -19.056,0.003c-1.498,1.207 -2.615,2.726 -3.362,4.409c-0.759,1.708 -1.131,3.594 -1.131,5.505c0,3.274 1.097,6.605 3.25,9.275c0.406,0.504 0.542,1.135 0.432,1.723l0,0z"/>
  <g id="svg_8">
   <path id="svg_9" fill="#C2C2C4" d="m190.844,196.798l149.923,0l0,3.791l-149.923,0l0,-3.791zm0,36.571l93.526,0l0,3.791l-93.526,0l0,-3.791zm0,-18.285l149.923,0l0,3.791l-149.923,0l0,-3.791z"/>
   <path id="svg_10" fill="#C2C2C4" d="m190.844,293.96l149.923,0l0,3.791l-149.923,0l0,-3.791zm0,36.57l93.526,0l0,3.791l-93.526,0l0,-3.791zm0,-18.285l149.923,0l0,3.791l-149.923,0l0,-3.791z"/>
   <path id="svg_11" fill="#C2C2C4" d="m190.844,391.121l149.923,0l0,3.791l-149.923,0l0,-3.791zm0,36.57l93.526,0l0,3.791l-93.526,0l0,-3.791zm0,-18.285l149.923,0l0,3.791l-149.923,0l0,-3.791z"/>
  </g>
  <g id="svg_12">
   <path id="svg_13" fill="#15BDB2" d="m125.447,188.767c7.791,0 14.844,3.158 19.948,8.263l-0.003,0.003c5.107,5.11 8.268,12.163 8.268,19.945c0,7.791 -3.158,14.844 -8.263,19.948c-5.104,5.104 -12.157,8.263 -19.948,8.263c-7.783,0 -14.836,-3.161 -19.945,-8.268l-0.005,0.005c-5.104,-5.104 -8.263,-12.16 -8.263,-19.948c0,-7.78 3.158,-14.833 8.263,-19.94l0.005,-0.005l0.005,-0.003c5.107,-5.104 12.16,-8.263 19.94,-8.263l-0.002,0zm16.972,11.239c-4.344,-4.343 -10.345,-7.029 -16.971,-7.029c-6.634,0 -12.635,2.684 -16.971,7.022l-0.011,0.008c-4.336,4.339 -7.022,10.337 -7.022,16.971c0,6.626 2.689,12.627 7.032,16.971l0,0.011c4.336,4.336 10.338,7.022 16.971,7.022c6.626,0 12.627,-2.689 16.971,-7.032c4.343,-4.344 7.029,-10.345 7.029,-16.971c0,-6.634 -2.684,-12.632 -7.022,-16.971l-0.006,0l0,-0.002z"/>
   <path id="svg_14" fill="#15BDB2" d="m125.447,285.931c7.791,0 14.844,3.156 19.948,8.263l-0.003,0.003c5.107,5.11 8.268,12.163 8.268,19.945c0,7.791 -3.158,14.844 -8.263,19.948c-5.104,5.104 -12.157,8.263 -19.948,8.263c-7.783,0 -14.836,-3.161 -19.945,-8.268l-0.005,0.005c-5.104,-5.104 -8.263,-12.16 -8.263,-19.948c0,-7.78 3.158,-14.833 8.263,-19.94l0.005,-0.005l0.005,-0.003c5.107,-5.104 12.16,-8.263 19.94,-8.263l-0.002,0zm16.972,11.24c-4.344,-4.343 -10.345,-7.029 -16.971,-7.029c-6.634,0 -12.635,2.684 -16.971,7.022l-0.011,0.008c-4.336,4.339 -7.022,10.337 -7.022,16.971c0,6.626 2.689,12.627 7.032,16.971l0,0.008c4.336,4.335 10.338,7.022 16.971,7.022c6.626,0 12.627,-2.689 16.971,-7.029c4.343,-4.343 7.029,-10.345 7.029,-16.971c0,-6.634 -2.684,-12.632 -7.022,-16.971l-0.006,0l0,-0.002z"/>
   <path id="svg_15" fill="#15BDB2" d="m125.447,383.093c7.791,0 14.844,3.156 19.948,8.263l-0.003,0.005c5.107,5.107 8.268,12.16 8.268,19.943c0,7.791 -3.158,14.844 -8.263,19.948c-5.104,5.104 -12.157,8.263 -19.948,8.263c-7.783,0 -14.836,-3.161 -19.945,-8.268l-0.005,0.005c-5.104,-5.104 -8.263,-12.157 -8.263,-19.948c0,-7.78 3.158,-14.833 8.263,-19.94l0.005,-0.003l0.005,-0.005c5.107,-5.104 12.16,-8.263 19.94,-8.263l-0.002,0zm16.972,11.239c-4.344,-4.343 -10.345,-7.029 -16.971,-7.029c-6.634,0 -12.635,2.684 -16.971,7.022l-0.011,0.008c-4.336,4.339 -7.022,10.338 -7.022,16.971c0,6.626 2.689,12.627 7.032,16.971l0,0.008c4.336,4.339 10.338,7.022 16.971,7.022c6.626,0 12.627,-2.689 16.971,-7.029c4.343,-4.343 7.029,-10.345 7.029,-16.971c0,-6.634 -2.684,-12.632 -7.022,-16.971l-0.006,0l0,-0.002z"/>
  </g>
  <g id="svg_16">
   <path id="svg_17" fill="#FF5B62" d="m110.19,219.92c-1.036,-0.792 -1.236,-2.275 -0.443,-3.311c0.792,-1.036 2.277,-1.236 3.313,-0.443l8.15,6.246l12.942,-17.527c0.776,-1.049 2.256,-1.267 3.305,-0.49c1.047,0.776 1.267,2.259 0.488,3.305l-14.322,19.402l-0.063,0.084c-0.792,1.036 -2.277,1.236 -3.313,0.443l-10.056,-7.706c-0.001,0 -0.001,-0.003 -0.001,-0.003z"/>
   <path id="svg_18" fill="#FF5B62" d="m111.803,318.042c-1.036,-0.792 -1.236,-2.277 -0.443,-3.313c0.792,-1.036 2.277,-1.236 3.313,-0.443l8.15,6.246l12.942,-17.53c0.776,-1.047 2.256,-1.267 3.305,-0.488c1.047,0.776 1.267,2.259 0.488,3.305l-14.322,19.402l-0.063,0.084c-0.792,1.036 -2.277,1.236 -3.313,0.443l-10.057,-7.706z"/>
   <path id="svg_19" fill="#FF5B62" d="m111.803,415.206c-1.036,-0.792 -1.236,-2.275 -0.443,-3.31c0.792,-1.036 2.277,-1.236 3.313,-0.443l8.15,6.246l12.942,-17.53c0.776,-1.047 2.256,-1.267 3.305,-0.488c1.047,0.776 1.267,2.259 0.488,3.305l-14.322,19.402l-0.063,0.084c-0.792,1.036 -2.277,1.236 -3.313,0.443l-10.056,-7.706l0,-0.003l-0.001,0z"/>
  </g>
  <rect id="svg_20" fill="#0F7986" height="123.458" width="24.834" y="105.404" x="417.931"/>
  <g id="svg_21">
   <path id="svg_22" fill="#FF5B62" d="m417.928,228.857l24.837,0l-7.754,24.501l-9.328,0l-7.754,-24.501l-0.001,0z"/>
   <path id="svg_23" fill="#FF5B62" d="m423.794,24.195l13.107,0c3.772,0 6.86,3.087 6.86,6.86l0,73.995c0,0.197 -0.158,0.351 -0.351,0.351l-26.12,0c-0.194,0 -0.351,-0.158 -0.351,-0.351l0,-73.996c0,-3.772 3.087,-6.86 6.86,-6.86c-0.001,0.001 -0.005,0.001 -0.005,0.001z"/>
  </g>
  <path id="svg_24" fill="#ED4C54" d="m443.757,31.054l0,74.013c-0.011,0.181 -0.152,0.325 -0.333,0.333l-0.018,0l-3.158,0l0,-80.327c2.089,1.178 3.509,3.423 3.509,5.981z"/>
  <path id="svg_25" fill="#EEF3F7" d="m427.962,253.356l4.772,0l0,11.41c0,1.314 -1.073,2.384 -2.384,2.384l-0.003,0c-1.311,0 -2.384,-1.07 -2.384,-2.384l0,-11.41l-0.001,0z"/>
  <path id="svg_26" fill="#FAD24D" d="m416.934,31.447l32.239,0l1.739,0l0,1.83l0,77.723l0,0.711l-0.467,0.533l-3.066,3.483c-1.471,1.308 -3.982,-0.695 -2.539,-2.489l2.597,-2.951l0,-75.178l-30.503,0l0,-3.665l0,0.003l0,0z"/>
  <rect id="svg_27" fill="#076673" height="123.458" width="3.079" y="105.404" x="439.689"/>
  <path id="svg_28" fill="#15BDB2" d="m143.389,155.274c-1.348,0 -2.442,-1.094 -2.442,-2.442s1.094,-2.442 2.442,-2.442l40.31,0l9.046,-21.923c0.511,-1.244 1.933,-1.836 3.177,-1.327c0.638,0.262 1.104,0.765 1.34,1.358l0.008,-0.003l13.417,33.874l11.418,-19.337c0.685,-1.157 2.18,-1.54 3.339,-0.857c0.367,0.218 0.653,0.514 0.857,0.857l6.62,10.151l9.597,-10.209c0.92,-0.978 2.465,-1.026 3.446,-0.105c0.187,0.176 0.335,0.372 0.456,0.582l3.89,6.943l52.277,0c1.348,0 2.442,1.094 2.442,2.442c0,1.348 -1.094,2.442 -2.442,2.442l-53.701,0l0,-0.005c-0.855,0 -1.682,-0.448 -2.127,-1.246l-2.966,-5.294l-9.443,10.041l-0.003,-0.003c-0.131,0.137 -0.28,0.267 -0.446,0.372c-1.125,0.732 -2.636,0.409 -3.368,-0.716l-6.225,-9.547l-11.888,20.132c-0.262,0.509 -0.701,0.926 -1.272,1.152c-1.254,0.493 -2.673,-0.124 -3.169,-1.374l-13.031,-32.901l-7.3,17.689c-0.317,0.978 -1.236,1.69 -2.321,1.69l-41.937,0l-0.001,0.006z"/>
  <g id="svg_29"/>
  <g id="svg_30"/>
  <g id="svg_31"/>
  <g id="svg_32"/>
  <g id="svg_33"/>
  <g id="svg_34"/>
  <g id="svg_35"/>
  <g id="svg_36"/>
  <g id="svg_37"/>
  <g id="svg_38"/>
  <g id="svg_39"/>
  <g id="svg_40"/>
  <g id="svg_41"/>
  <g id="svg_42"/>
  <g id="svg_43"/>
 </g>
</svg>