<svg width="106" height="102" viewBox="0 0 106 102" fill="none" xmlns="http://www.w3.org/2000/svg">
<path d="M56.063 11.8343V8.87948H58.8206V7.02549C58.8206 3.66512 60.8785 1 63.4715 1C66.0233 1 68.1224 3.72305 68.1224 7.02549V8.87948H70.8388V11.8343H56.063ZM80.4287 73.19C74.9958 73.19 70.5507 79.3893 70.5507 87.095C70.5507 94.7428 74.9546 101 80.4287 101C85.8616 101 90.2655 94.8007 90.2655 87.095C90.2655 79.3893 85.8616 73.19 80.4287 73.19ZM80.4287 93.6999C77.8357 93.6999 75.6955 90.7451 75.6955 87.0371C75.6955 83.387 77.7946 80.3743 80.4287 80.3743C83.0217 80.3743 85.1619 83.3291 85.1619 87.0371C85.1207 90.7451 83.0217 93.6999 80.4287 93.6999ZM23.9184 73.0742C18.4855 73.0742 14.0404 79.2735 14.0404 86.9791C14.0404 94.6269 18.4443 100.884 23.9184 100.884C29.3513 100.884 33.7964 94.6848 33.7964 86.9791C33.7964 79.2735 29.3924 73.0742 23.9184 73.0742ZM23.9595 93.584C21.3666 93.584 19.2263 90.6292 19.2263 86.9212C19.2263 83.2711 21.3254 80.2584 23.9595 80.2584C26.5937 80.2584 28.6927 83.2711 28.6927 86.9791C28.6927 90.6292 26.5525 93.584 23.9595 93.584ZM96.9743 47.5817C99.9377 48.3928 101.666 50.1889 103.025 60.3858L105.124 78.8679C105.864 84.8934 103.477 87.095 100.473 87.095H93.2289C93.2289 77.1298 87.5079 69.0185 80.4287 69.0185C73.3495 69.0185 67.6285 77.1298 67.6285 87.095H36.7598C36.7598 77.1298 31.0388 69.0185 23.9595 69.0185C16.8803 69.0185 11.1593 77.1298 11.1593 87.095H5.10904C3.00997 87.095 1.36364 84.8354 1.36364 81.9386V21.2202C1.36364 17.9177 3.21577 15.2526 5.47947 15.2526H72.1147H83.0217C85.9851 15.2526 88.1253 17.3383 89.1954 20.9305L96.9743 47.5817ZM71.1269 21.4519V46.6547H91.8707L84.5857 21.4519H71.1269ZM52.5645 43.4102V27.9409H41.5753V43.4102H30.586V58.8795H41.5753V74.3488H52.5645V58.8795H63.5538V43.4102H52.5645Z" fill="#00AB91" stroke="black"/>
</svg>
