<svg xmlns="http://www.w3.org/2000/svg" version="1.1" xmlns:xlink="http://www.w3.org/1999/xlink" xmlns:svgjs="http://svgjs.com/svgjs" width="320" height="568" preserveAspectRatio="none" viewBox="0 0 320 568"><g mask="url(&quot;#SvgjsMask1002&quot;)" fill="none"><rect width="320" height="568" x="0" y="0" fill="rgba(50, 56, 142, 1)"></rect><path d="M-38.14 373.81L-38.14 373.81" stroke="rgba(0, 171, 145, 0.15)" stroke-width="1.5"></path><path d="M-38.14 373.81L43.73 399.09" stroke="rgba(0, 171, 145, 0.15)" stroke-width="1.5"></path><path d="M-38.14 373.81L-28.2 460.71" stroke="rgba(0, 171, 145, 0.15)" stroke-width="1.5"></path><path d="M-38.14 373.81L25.94 453.45" stroke="rgba(0, 171, 145, 0.15)" stroke-width="1.5"></path><path d="M-28.2 460.71L-28.2 460.71" stroke="rgba(0, 171, 145, 0.15)" stroke-width="1.5"></path><path d="M-28.2 460.71L25.94 453.45" stroke="rgba(0, 171, 145, 0.15)" stroke-width="1.5"></path><path d="M-28.2 460.71L-44.99 524.54" stroke="rgba(0, 171, 145, 0.15)" stroke-width="1.5"></path><path d="M-44.99 524.54L-44.99 524.54" stroke="rgba(0, 171, 145, 0.15)" stroke-width="1.5"></path><path d="M-44.99 524.54L-51.03 588.59" stroke="rgba(0, 171, 145, 0.15)" stroke-width="1.5"></path><path d="M-44.99 524.54L37.06 532.89" stroke="rgba(0, 171, 145, 0.15)" stroke-width="1.5"></path><path d="M-44.99 524.54L25.94 453.45" stroke="rgba(0, 171, 145, 0.15)" stroke-width="1.5"></path><path d="M-44.99 524.54L52.5 615.59" stroke="rgba(0, 171, 145, 0.15)" stroke-width="1.5"></path><path d="M-44.99 524.54L-38.14 373.81" stroke="rgba(0, 171, 145, 0.15)" stroke-width="1.5"></path><path d="M-51.03 588.59L-51.03 588.59" stroke="rgba(0, 171, 145, 0.15)" stroke-width="1.5"></path><path d="M-51.03 588.59L37.06 532.89" stroke="rgba(0, 171, 145, 0.15)" stroke-width="1.5"></path><path d="M-51.03 588.59L52.5 615.59" stroke="rgba(0, 171, 145, 0.15)" stroke-width="1.5"></path><path d="M43.73 399.09L43.73 399.09" stroke="rgba(0, 171, 145, 0.15)" stroke-width="1.5"></path><path d="M43.73 399.09L25.94 453.45" stroke="rgba(0, 171, 145, 0.15)" stroke-width="1.5"></path><path d="M25.94 453.45L25.94 453.45" stroke="rgba(0, 171, 145, 0.15)" stroke-width="1.5"></path><path d="M37.06 532.89L37.06 532.89" stroke="rgba(0, 171, 145, 0.15)" stroke-width="1.5"></path><path d="M37.06 532.89L113.62 532.37" stroke="rgba(0, 171, 145, 0.15)" stroke-width="1.5"></path><path d="M37.06 532.89L25.94 453.45" stroke="rgba(0, 171, 145, 0.15)" stroke-width="1.5"></path><path d="M37.06 532.89L52.5 615.59" stroke="rgba(0, 171, 145, 0.15)" stroke-width="1.5"></path><path d="M37.06 532.89L103.59 465.46" stroke="rgba(0, 171, 145, 0.15)" stroke-width="1.5"></path><path d="M37.06 532.89L-28.2 460.71" stroke="rgba(0, 171, 145, 0.15)" stroke-width="1.5"></path><path d="M52.5 615.59L52.5 615.59" stroke="rgba(0, 171, 145, 0.15)" stroke-width="1.5"></path><path d="M52.5 615.59L113.62 532.37" stroke="rgba(0, 171, 145, 0.15)" stroke-width="1.5"></path><path d="M52.5 615.59L187.1 595.19" stroke="rgba(0, 171, 145, 0.15)" stroke-width="1.5"></path><path d="M52.5 615.59L103.59 465.46" stroke="rgba(0, 171, 145, 0.15)" stroke-width="1.5"></path><path d="M106.44 314.58L106.44 314.58" stroke="rgba(0, 171, 145, 0.15)" stroke-width="1.5"></path><path d="M106.44 314.58L184.93 321.52" stroke="rgba(0, 171, 145, 0.15)" stroke-width="1.5"></path><path d="M106.44 314.58L168.53 382.19" stroke="rgba(0, 171, 145, 0.15)" stroke-width="1.5"></path><path d="M103.59 465.46L103.59 465.46" stroke="rgba(0, 171, 145, 0.15)" stroke-width="1.5"></path><path d="M103.59 465.46L169.95 477.23" stroke="rgba(0, 171, 145, 0.15)" stroke-width="1.5"></path><path d="M103.59 465.46L113.62 532.37" stroke="rgba(0, 171, 145, 0.15)" stroke-width="1.5"></path><path d="M103.59 465.46L25.94 453.45" stroke="rgba(0, 171, 145, 0.15)" stroke-width="1.5"></path><path d="M103.59 465.46L43.73 399.09" stroke="rgba(0, 171, 145, 0.15)" stroke-width="1.5"></path><path d="M113.62 532.37L113.62 532.37" stroke="rgba(0, 171, 145, 0.15)" stroke-width="1.5"></path><path d="M172.34 169.46L172.34 169.46" stroke="rgba(0, 171, 145, 0.15)" stroke-width="1.5"></path><path d="M172.34 169.46L263.07 184.4" stroke="rgba(0, 171, 145, 0.15)" stroke-width="1.5"></path><path d="M172.34 169.46L255.75 118.74" stroke="rgba(0, 171, 145, 0.15)" stroke-width="1.5"></path><path d="M184.93 321.52L184.93 321.52" stroke="rgba(0, 171, 145, 0.15)" stroke-width="1.5"></path><path d="M184.93 321.52L168.53 382.19" stroke="rgba(0, 171, 145, 0.15)" stroke-width="1.5"></path><path d="M184.93 321.52L262.28 330.21" stroke="rgba(0, 171, 145, 0.15)" stroke-width="1.5"></path><path d="M168.53 382.19L168.53 382.19" stroke="rgba(0, 171, 145, 0.15)" stroke-width="1.5"></path><path d="M168.53 382.19L262.58 389.04" stroke="rgba(0, 171, 145, 0.15)" stroke-width="1.5"></path><path d="M168.53 382.19L169.95 477.23" stroke="rgba(0, 171, 145, 0.15)" stroke-width="1.5"></path><path d="M168.53 382.19L103.59 465.46" stroke="rgba(0, 171, 145, 0.15)" stroke-width="1.5"></path><path d="M169.95 477.23L169.95 477.23" stroke="rgba(0, 171, 145, 0.15)" stroke-width="1.5"></path><path d="M169.95 477.23L181.5 519.82" stroke="rgba(0, 171, 145, 0.15)" stroke-width="1.5"></path><path d="M169.95 477.23L113.62 532.37" stroke="rgba(0, 171, 145, 0.15)" stroke-width="1.5"></path><path d="M169.95 477.23L249.46 452.27" stroke="rgba(0, 171, 145, 0.15)" stroke-width="1.5"></path><path d="M169.95 477.23L250.98 522.93" stroke="rgba(0, 171, 145, 0.15)" stroke-width="1.5"></path><path d="M181.5 519.82L181.5 519.82" stroke="rgba(0, 171, 145, 0.15)" stroke-width="1.5"></path><path d="M181.5 519.82L113.62 532.37" stroke="rgba(0, 171, 145, 0.15)" stroke-width="1.5"></path><path d="M181.5 519.82L250.98 522.93" stroke="rgba(0, 171, 145, 0.15)" stroke-width="1.5"></path><path d="M181.5 519.82L187.1 595.19" stroke="rgba(0, 171, 145, 0.15)" stroke-width="1.5"></path><path d="M181.5 519.82L103.59 465.46" stroke="rgba(0, 171, 145, 0.15)" stroke-width="1.5"></path><path d="M187.1 595.19L187.1 595.19" stroke="rgba(0, 171, 145, 0.15)" stroke-width="1.5"></path><path d="M187.1 595.19L233.01 602.06" stroke="rgba(0, 171, 145, 0.15)" stroke-width="1.5"></path><path d="M187.1 595.19L250.98 522.93" stroke="rgba(0, 171, 145, 0.15)" stroke-width="1.5"></path><path d="M187.1 595.19L113.62 532.37" stroke="rgba(0, 171, 145, 0.15)" stroke-width="1.5"></path><path d="M254.51 -33.17L254.51 -33.17" stroke="rgba(0, 171, 145, 0.15)" stroke-width="1.5"></path><path d="M254.51 -33.17L312.11 -22.62" stroke="rgba(0, 171, 145, 0.15)" stroke-width="1.5"></path><path d="M254.51 -33.17L311.49 28.02" stroke="rgba(0, 171, 145, 0.15)" stroke-width="1.5"></path><path d="M254.51 -33.17L233.07 53.2" stroke="rgba(0, 171, 145, 0.15)" stroke-width="1.5"></path><path d="M233.07 53.2L233.07 53.2" stroke="rgba(0, 171, 145, 0.15)" stroke-width="1.5"></path><path d="M233.07 53.2L255.75 118.74" stroke="rgba(0, 171, 145, 0.15)" stroke-width="1.5"></path><path d="M233.07 53.2L311.49 28.02" stroke="rgba(0, 171, 145, 0.15)" stroke-width="1.5"></path><path d="M233.07 53.2L323.4 111.35" stroke="rgba(0, 171, 145, 0.15)" stroke-width="1.5"></path><path d="M233.07 53.2L312.11 -22.62" stroke="rgba(0, 171, 145, 0.15)" stroke-width="1.5"></path><path d="M233.07 53.2L172.34 169.46" stroke="rgba(0, 171, 145, 0.15)" stroke-width="1.5"></path><path d="M255.75 118.74L255.75 118.74" stroke="rgba(0, 171, 145, 0.15)" stroke-width="1.5"></path><path d="M255.75 118.74L263.07 184.4" stroke="rgba(0, 171, 145, 0.15)" stroke-width="1.5"></path><path d="M263.07 184.4L263.07 184.4" stroke="rgba(0, 171, 145, 0.15)" stroke-width="1.5"></path><path d="M263.07 184.4L309.45 181.8" stroke="rgba(0, 171, 145, 0.15)" stroke-width="1.5"></path><path d="M263.07 184.4L260.52 253.66" stroke="rgba(0, 171, 145, 0.15)" stroke-width="1.5"></path><path d="M263.07 184.4L302.3 252.74" stroke="rgba(0, 171, 145, 0.15)" stroke-width="1.5"></path><path d="M260.52 253.66L260.52 253.66" stroke="rgba(0, 171, 145, 0.15)" stroke-width="1.5"></path><path d="M260.52 253.66L302.3 252.74" stroke="rgba(0, 171, 145, 0.15)" stroke-width="1.5"></path><path d="M262.28 330.21L262.28 330.21" stroke="rgba(0, 171, 145, 0.15)" stroke-width="1.5"></path><path d="M262.28 330.21L314.64 311.69" stroke="rgba(0, 171, 145, 0.15)" stroke-width="1.5"></path><path d="M262.28 330.21L262.58 389.04" stroke="rgba(0, 171, 145, 0.15)" stroke-width="1.5"></path><path d="M262.28 330.21L260.52 253.66" stroke="rgba(0, 171, 145, 0.15)" stroke-width="1.5"></path><path d="M262.58 389.04L262.58 389.04" stroke="rgba(0, 171, 145, 0.15)" stroke-width="1.5"></path><path d="M262.58 389.04L324.69 399.86" stroke="rgba(0, 171, 145, 0.15)" stroke-width="1.5"></path><path d="M249.46 452.27L249.46 452.27" stroke="rgba(0, 171, 145, 0.15)" stroke-width="1.5"></path><path d="M249.46 452.27L302.42 456.9" stroke="rgba(0, 171, 145, 0.15)" stroke-width="1.5"></path><path d="M249.46 452.27L262.58 389.04" stroke="rgba(0, 171, 145, 0.15)" stroke-width="1.5"></path><path d="M250.98 522.93L250.98 522.93" stroke="rgba(0, 171, 145, 0.15)" stroke-width="1.5"></path><path d="M250.98 522.93L312.05 532.43" stroke="rgba(0, 171, 145, 0.15)" stroke-width="1.5"></path><path d="M233.01 602.06L233.01 602.06" stroke="rgba(0, 171, 145, 0.15)" stroke-width="1.5"></path><path d="M233.01 602.06L250.98 522.93" stroke="rgba(0, 171, 145, 0.15)" stroke-width="1.5"></path><path d="M233.01 602.06L181.5 519.82" stroke="rgba(0, 171, 145, 0.15)" stroke-width="1.5"></path><path d="M233.01 602.06L334.48 592.17" stroke="rgba(0, 171, 145, 0.15)" stroke-width="1.5"></path><path d="M233.01 602.06L312.05 532.43" stroke="rgba(0, 171, 145, 0.15)" stroke-width="1.5"></path><path d="M312.11 -22.62L312.11 -22.62" stroke="rgba(0, 171, 145, 0.15)" stroke-width="1.5"></path><path d="M312.11 -22.62L311.49 28.02" stroke="rgba(0, 171, 145, 0.15)" stroke-width="1.5"></path><path d="M312.11 -22.62L394.15 -40.44" stroke="rgba(0, 171, 145, 0.15)" stroke-width="1.5"></path><path d="M312.11 -22.62L397.41 30.92" stroke="rgba(0, 171, 145, 0.15)" stroke-width="1.5"></path><path d="M311.49 28.02L311.49 28.02" stroke="rgba(0, 171, 145, 0.15)" stroke-width="1.5"></path><path d="M311.49 28.02L323.4 111.35" stroke="rgba(0, 171, 145, 0.15)" stroke-width="1.5"></path><path d="M311.49 28.02L397.41 30.92" stroke="rgba(0, 171, 145, 0.15)" stroke-width="1.5"></path><path d="M311.49 28.02L255.75 118.74" stroke="rgba(0, 171, 145, 0.15)" stroke-width="1.5"></path><path d="M323.4 111.35L323.4 111.35" stroke="rgba(0, 171, 145, 0.15)" stroke-width="1.5"></path><path d="M323.4 111.35L255.75 118.74" stroke="rgba(0, 171, 145, 0.15)" stroke-width="1.5"></path><path d="M323.4 111.35L309.45 181.8" stroke="rgba(0, 171, 145, 0.15)" stroke-width="1.5"></path><path d="M323.4 111.35L398.27 107.74" stroke="rgba(0, 171, 145, 0.15)" stroke-width="1.5"></path><path d="M309.45 181.8L309.45 181.8" stroke="rgba(0, 171, 145, 0.15)" stroke-width="1.5"></path><path d="M309.45 181.8L302.3 252.74" stroke="rgba(0, 171, 145, 0.15)" stroke-width="1.5"></path><path d="M309.45 181.8L255.75 118.74" stroke="rgba(0, 171, 145, 0.15)" stroke-width="1.5"></path><path d="M302.3 252.74L302.3 252.74" stroke="rgba(0, 171, 145, 0.15)" stroke-width="1.5"></path><path d="M302.3 252.74L314.64 311.69" stroke="rgba(0, 171, 145, 0.15)" stroke-width="1.5"></path><path d="M302.3 252.74L262.28 330.21" stroke="rgba(0, 171, 145, 0.15)" stroke-width="1.5"></path><path d="M302.3 252.74L390.43 230.78" stroke="rgba(0, 171, 145, 0.15)" stroke-width="1.5"></path><path d="M314.64 311.69L314.64 311.69" stroke="rgba(0, 171, 145, 0.15)" stroke-width="1.5"></path><path d="M314.64 311.69L373.88 325.5" stroke="rgba(0, 171, 145, 0.15)" stroke-width="1.5"></path><path d="M314.64 311.69L260.52 253.66" stroke="rgba(0, 171, 145, 0.15)" stroke-width="1.5"></path><path d="M324.69 399.86L324.69 399.86" stroke="rgba(0, 171, 145, 0.15)" stroke-width="1.5"></path><path d="M324.69 399.86L302.42 456.9" stroke="rgba(0, 171, 145, 0.15)" stroke-width="1.5"></path><path d="M302.42 456.9L302.42 456.9" stroke="rgba(0, 171, 145, 0.15)" stroke-width="1.5"></path><path d="M312.05 532.43L312.05 532.43" stroke="rgba(0, 171, 145, 0.15)" stroke-width="1.5"></path><path d="M312.05 532.43L334.48 592.17" stroke="rgba(0, 171, 145, 0.15)" stroke-width="1.5"></path><path d="M312.05 532.43L302.42 456.9" stroke="rgba(0, 171, 145, 0.15)" stroke-width="1.5"></path><path d="M312.05 532.43L396.55 547.83" stroke="rgba(0, 171, 145, 0.15)" stroke-width="1.5"></path><path d="M334.48 592.17L334.48 592.17" stroke="rgba(0, 171, 145, 0.15)" stroke-width="1.5"></path><path d="M334.48 592.17L398.1 585.88" stroke="rgba(0, 171, 145, 0.15)" stroke-width="1.5"></path><path d="M334.48 592.17L396.55 547.83" stroke="rgba(0, 171, 145, 0.15)" stroke-width="1.5"></path><path d="M394.15 -40.44L394.15 -40.44" stroke="rgba(0, 171, 145, 0.15)" stroke-width="1.5"></path><path d="M394.15 -40.44L397.41 30.92" stroke="rgba(0, 171, 145, 0.15)" stroke-width="1.5"></path><path d="M397.41 30.92L397.41 30.92" stroke="rgba(0, 171, 145, 0.15)" stroke-width="1.5"></path><path d="M397.41 30.92L398.27 107.74" stroke="rgba(0, 171, 145, 0.15)" stroke-width="1.5"></path><path d="M398.27 107.74L398.27 107.74" stroke="rgba(0, 171, 145, 0.15)" stroke-width="1.5"></path><path d="M398.27 107.74L392.98 186.16" stroke="rgba(0, 171, 145, 0.15)" stroke-width="1.5"></path><path d="M398.27 107.74L309.45 181.8" stroke="rgba(0, 171, 145, 0.15)" stroke-width="1.5"></path><path d="M392.98 186.16L392.98 186.16" stroke="rgba(0, 171, 145, 0.15)" stroke-width="1.5"></path><path d="M392.98 186.16L390.43 230.78" stroke="rgba(0, 171, 145, 0.15)" stroke-width="1.5"></path><path d="M392.98 186.16L309.45 181.8" stroke="rgba(0, 171, 145, 0.15)" stroke-width="1.5"></path><path d="M392.98 186.16L323.4 111.35" stroke="rgba(0, 171, 145, 0.15)" stroke-width="1.5"></path><path d="M392.98 186.16L302.3 252.74" stroke="rgba(0, 171, 145, 0.15)" stroke-width="1.5"></path><path d="M392.98 186.16L263.07 184.4" stroke="rgba(0, 171, 145, 0.15)" stroke-width="1.5"></path><path d="M390.43 230.78L390.43 230.78" stroke="rgba(0, 171, 145, 0.15)" stroke-width="1.5"></path><path d="M373.88 325.5L373.88 325.5" stroke="rgba(0, 171, 145, 0.15)" stroke-width="1.5"></path><path d="M373.88 325.5L405.25 402.51" stroke="rgba(0, 171, 145, 0.15)" stroke-width="1.5"></path><path d="M373.88 325.5L324.69 399.86" stroke="rgba(0, 171, 145, 0.15)" stroke-width="1.5"></path><path d="M405.25 402.51L405.25 402.51" stroke="rgba(0, 171, 145, 0.15)" stroke-width="1.5"></path><path d="M405.25 402.51L400.25 445.18" stroke="rgba(0, 171, 145, 0.15)" stroke-width="1.5"></path><path d="M405.25 402.51L324.69 399.86" stroke="rgba(0, 171, 145, 0.15)" stroke-width="1.5"></path><path d="M400.25 445.18L400.25 445.18" stroke="rgba(0, 171, 145, 0.15)" stroke-width="1.5"></path><path d="M400.25 445.18L324.69 399.86" stroke="rgba(0, 171, 145, 0.15)" stroke-width="1.5"></path><path d="M400.25 445.18L302.42 456.9" stroke="rgba(0, 171, 145, 0.15)" stroke-width="1.5"></path><path d="M400.25 445.18L396.55 547.83" stroke="rgba(0, 171, 145, 0.15)" stroke-width="1.5"></path><path d="M400.25 445.18L373.88 325.5" stroke="rgba(0, 171, 145, 0.15)" stroke-width="1.5"></path><path d="M396.55 547.83L396.55 547.83" stroke="rgba(0, 171, 145, 0.15)" stroke-width="1.5"></path><path d="M396.55 547.83L398.1 585.88" stroke="rgba(0, 171, 145, 0.15)" stroke-width="1.5"></path><path d="M396.55 547.83L302.42 456.9" stroke="rgba(0, 171, 145, 0.15)" stroke-width="1.5"></path><path d="M398.1 585.88L398.1 585.88" stroke="rgba(0, 171, 145, 0.15)" stroke-width="1.5"></path><path d="M398.1 585.88L312.05 532.43" stroke="rgba(0, 171, 145, 0.15)" stroke-width="1.5"></path><circle r="5" cx="-38.14" cy="373.81" fill="rgba(0, 171, 145, 0.15)"></circle><circle r="5" cx="-28.2" cy="460.71" fill="rgba(0, 171, 145, 0.15)"></circle><circle r="5" cx="-44.99" cy="524.54" fill="rgba(0, 171, 145, 0.15)"></circle><circle r="5" cx="-51.03" cy="588.59" fill="rgba(0, 171, 145, 0.15)"></circle><circle r="5" cx="43.73" cy="399.09" fill="rgba(0, 171, 145, 0.15)"></circle><circle r="5" cx="25.94" cy="453.45" fill="rgba(0, 171, 145, 0.15)"></circle><circle r="5" cx="37.06" cy="532.89" fill="rgba(0, 171, 145, 0.15)"></circle><circle r="5" cx="52.5" cy="615.59" fill="rgba(0, 171, 145, 0.15)"></circle><circle r="5" cx="106.44" cy="314.58" fill="rgba(0, 171, 145, 0.15)"></circle><circle r="5" cx="103.59" cy="465.46" fill="rgba(0, 171, 145, 0.15)"></circle><circle r="5" cx="113.62" cy="532.37" fill="rgba(0, 171, 145, 0.15)"></circle><circle r="5" cx="172.34" cy="169.46" fill="rgba(0, 171, 145, 0.15)"></circle><circle r="5" cx="184.93" cy="321.52" fill="rgba(0, 171, 145, 0.15)"></circle><circle r="5" cx="168.53" cy="382.19" fill="rgba(0, 171, 145, 0.15)"></circle><circle r="5" cx="169.95" cy="477.23" fill="rgba(0, 171, 145, 0.15)"></circle><circle r="5" cx="181.5" cy="519.82" fill="rgba(0, 171, 145, 0.15)"></circle><circle r="5" cx="187.1" cy="595.19" fill="rgba(0, 171, 145, 0.15)"></circle><circle r="5" cx="254.51" cy="-33.17" fill="rgba(0, 171, 145, 0.15)"></circle><circle r="5" cx="233.07" cy="53.2" fill="rgba(0, 171, 145, 0.15)"></circle><circle r="5" cx="255.75" cy="118.74" fill="rgba(0, 171, 145, 0.15)"></circle><circle r="5" cx="263.07" cy="184.4" fill="rgba(0, 171, 145, 0.15)"></circle><circle r="5" cx="260.52" cy="253.66" fill="rgba(0, 171, 145, 0.15)"></circle><circle r="5" cx="262.28" cy="330.21" fill="rgba(0, 171, 145, 0.15)"></circle><circle r="5" cx="262.58" cy="389.04" fill="rgba(0, 171, 145, 0.15)"></circle><circle r="5" cx="249.46" cy="452.27" fill="rgba(0, 171, 145, 0.15)"></circle><circle r="5" cx="250.98" cy="522.93" fill="rgba(0, 171, 145, 0.15)"></circle><circle r="5" cx="233.01" cy="602.06" fill="rgba(0, 171, 145, 0.15)"></circle><circle r="5" cx="312.11" cy="-22.62" fill="rgba(0, 171, 145, 0.15)"></circle><circle r="5" cx="311.49" cy="28.02" fill="rgba(0, 171, 145, 0.15)"></circle><circle r="5" cx="323.4" cy="111.35" fill="rgba(0, 171, 145, 0.15)"></circle><circle r="5" cx="309.45" cy="181.8" fill="rgba(0, 171, 145, 0.15)"></circle><circle r="5" cx="302.3" cy="252.74" fill="rgba(0, 171, 145, 0.15)"></circle><circle r="5" cx="314.64" cy="311.69" fill="rgba(0, 171, 145, 0.15)"></circle><circle r="5" cx="324.69" cy="399.86" fill="rgba(0, 171, 145, 0.15)"></circle><circle r="5" cx="302.42" cy="456.9" fill="rgba(0, 171, 145, 0.15)"></circle><circle r="5" cx="312.05" cy="532.43" fill="rgba(0, 171, 145, 0.15)"></circle><circle r="5" cx="334.48" cy="592.17" fill="rgba(0, 171, 145, 0.15)"></circle><circle r="5" cx="394.15" cy="-40.44" fill="rgba(0, 171, 145, 0.15)"></circle><circle r="5" cx="397.41" cy="30.92" fill="rgba(0, 171, 145, 0.15)"></circle><circle r="5" cx="398.27" cy="107.74" fill="rgba(0, 171, 145, 0.15)"></circle><circle r="5" cx="392.98" cy="186.16" fill="rgba(0, 171, 145, 0.15)"></circle><circle r="5" cx="390.43" cy="230.78" fill="rgba(0, 171, 145, 0.15)"></circle><circle r="5" cx="373.88" cy="325.5" fill="rgba(0, 171, 145, 0.15)"></circle><circle r="5" cx="405.25" cy="402.51" fill="rgba(0, 171, 145, 0.15)"></circle><circle r="5" cx="400.25" cy="445.18" fill="rgba(0, 171, 145, 0.15)"></circle><circle r="5" cx="396.55" cy="547.83" fill="rgba(0, 171, 145, 0.15)"></circle><circle r="5" cx="398.1" cy="585.88" fill="rgba(0, 171, 145, 0.15)"></circle><path d="M31.34 611.26L31.34 611.26" stroke="hsla(170.89999999999998, 100%, 43.6%, 0.15)" stroke-width="1.5"></path><path d="M31.34 611.26L-30.5 598.46" stroke="hsla(170.89999999999998, 100%, 43.6%, 0.15)" stroke-width="1.5"></path><path d="M31.34 611.26L102.89 618.75" stroke="hsla(170.89999999999998, 100%, 43.6%, 0.15)" stroke-width="1.5"></path><path d="M31.34 611.26L-20.83 543.7" stroke="hsla(170.89999999999998, 100%, 43.6%, 0.15)" stroke-width="1.5"></path><path d="M31.34 611.26L18.32 520.32" stroke="hsla(170.89999999999998, 100%, 43.6%, 0.15)" stroke-width="1.5"></path><path d="M31.34 611.26L111.22 532.14" stroke="hsla(170.89999999999998, 100%, 43.6%, 0.15)" stroke-width="1.5"></path><path d="M31.34 611.26L160.37 604.24" stroke="hsla(170.89999999999998, 100%, 43.6%, 0.15)" stroke-width="1.5"></path><path d="M160.99 392.69L160.99 392.69" stroke="hsla(170.89999999999998, 100%, 43.6%, 0.15)" stroke-width="1.5"></path><path d="M160.99 392.69L173.76 457.99" stroke="hsla(170.89999999999998, 100%, 43.6%, 0.15)" stroke-width="1.5"></path><path d="M160.99 392.69L118.5 448.61" stroke="hsla(170.89999999999998, 100%, 43.6%, 0.15)" stroke-width="1.5"></path><path d="M164.1 528.68L164.1 528.68" stroke="hsla(170.89999999999998, 100%, 43.6%, 0.15)" stroke-width="1.5"></path><path d="M164.1 528.68L111.22 532.14" stroke="hsla(170.89999999999998, 100%, 43.6%, 0.15)" stroke-width="1.5"></path><path d="M164.1 528.68L173.76 457.99" stroke="hsla(170.89999999999998, 100%, 43.6%, 0.15)" stroke-width="1.5"></path><path d="M164.1 528.68L160.37 604.24" stroke="hsla(170.89999999999998, 100%, 43.6%, 0.15)" stroke-width="1.5"></path><path d="M164.1 528.68L248.13 515.9" stroke="hsla(170.89999999999998, 100%, 43.6%, 0.15)" stroke-width="1.5"></path><path d="M164.1 528.68L236.98 477.1" stroke="hsla(170.89999999999998, 100%, 43.6%, 0.15)" stroke-width="1.5"></path><path d="M252.44 380.52L252.44 380.52" stroke="hsla(170.89999999999998, 100%, 43.6%, 0.15)" stroke-width="1.5"></path><path d="M252.44 380.52L302.08 405.87" stroke="hsla(170.89999999999998, 100%, 43.6%, 0.15)" stroke-width="1.5"></path><path d="M252.44 380.52L254.67 312.02" stroke="hsla(170.89999999999998, 100%, 43.6%, 0.15)" stroke-width="1.5"></path><path d="M252.44 380.52L160.99 392.69" stroke="hsla(170.89999999999998, 100%, 43.6%, 0.15)" stroke-width="1.5"></path><path d="M252.44 380.52L236.98 477.1" stroke="hsla(170.89999999999998, 100%, 43.6%, 0.15)" stroke-width="1.5"></path><path d="M252.44 380.52L336.42 326.75" stroke="hsla(170.89999999999998, 100%, 43.6%, 0.15)" stroke-width="1.5"></path><path d="M252.44 380.52L173.76 457.99" stroke="hsla(170.89999999999998, 100%, 43.6%, 0.15)" stroke-width="1.5"></path><path d="M402.73 30.47L402.73 30.47" stroke="hsla(170.89999999999998, 100%, 43.6%, 0.15)" stroke-width="1.5"></path><path d="M402.73 30.47L387.52 -41.88" stroke="hsla(170.89999999999998, 100%, 43.6%, 0.15)" stroke-width="1.5"></path><path d="M402.73 30.47L390.02 113.3" stroke="hsla(170.89999999999998, 100%, 43.6%, 0.15)" stroke-width="1.5"></path><path d="M377.05 244.22L377.05 244.22" stroke="hsla(170.89999999999998, 100%, 43.6%, 0.15)" stroke-width="1.5"></path><path d="M377.05 244.22L303.56 253.61" stroke="hsla(170.89999999999998, 100%, 43.6%, 0.15)" stroke-width="1.5"></path><path d="M377.05 244.22L376.6 162.71" stroke="hsla(170.89999999999998, 100%, 43.6%, 0.15)" stroke-width="1.5"></path><path d="M377.05 244.22L336.42 326.75" stroke="hsla(170.89999999999998, 100%, 43.6%, 0.15)" stroke-width="1.5"></path><path d="M-31.03 453.13L-31.03 453.13" stroke="hsla(170.89999999999998, 100%, 43.6%, 0.15)" stroke-width="1.5"></path><path d="M-31.03 453.13L30.66 454.29" stroke="hsla(170.89999999999998, 100%, 43.6%, 0.15)" stroke-width="1.5"></path><path d="M-31.03 453.13L18.32 520.32" stroke="hsla(170.89999999999998, 100%, 43.6%, 0.15)" stroke-width="1.5"></path><path d="M-20.83 543.7L-20.83 543.7" stroke="hsla(170.89999999999998, 100%, 43.6%, 0.15)" stroke-width="1.5"></path><path d="M-20.83 543.7L18.32 520.32" stroke="hsla(170.89999999999998, 100%, 43.6%, 0.15)" stroke-width="1.5"></path><path d="M-30.5 598.46L-30.5 598.46" stroke="hsla(170.89999999999998, 100%, 43.6%, 0.15)" stroke-width="1.5"></path><path d="M-30.5 598.46L-20.83 543.7" stroke="hsla(170.89999999999998, 100%, 43.6%, 0.15)" stroke-width="1.5"></path><path d="M-30.5 598.46L18.32 520.32" stroke="hsla(170.89999999999998, 100%, 43.6%, 0.15)" stroke-width="1.5"></path><path d="M-30.5 598.46L102.89 618.75" stroke="hsla(170.89999999999998, 100%, 43.6%, 0.15)" stroke-width="1.5"></path><path d="M-30.5 598.46L-31.03 453.13" stroke="hsla(170.89999999999998, 100%, 43.6%, 0.15)" stroke-width="1.5"></path><path d="M-30.5 598.46L111.22 532.14" stroke="hsla(170.89999999999998, 100%, 43.6%, 0.15)" stroke-width="1.5"></path><path d="M30.66 454.29L30.66 454.29" stroke="hsla(170.89999999999998, 100%, 43.6%, 0.15)" stroke-width="1.5"></path><path d="M18.32 520.32L18.32 520.32" stroke="hsla(170.89999999999998, 100%, 43.6%, 0.15)" stroke-width="1.5"></path><path d="M18.32 520.32L30.66 454.29" stroke="hsla(170.89999999999998, 100%, 43.6%, 0.15)" stroke-width="1.5"></path><path d="M118.5 448.61L118.5 448.61" stroke="hsla(170.89999999999998, 100%, 43.6%, 0.15)" stroke-width="1.5"></path><path d="M118.5 448.61L173.76 457.99" stroke="hsla(170.89999999999998, 100%, 43.6%, 0.15)" stroke-width="1.5"></path><path d="M118.5 448.61L111.22 532.14" stroke="hsla(170.89999999999998, 100%, 43.6%, 0.15)" stroke-width="1.5"></path><path d="M111.22 532.14L111.22 532.14" stroke="hsla(170.89999999999998, 100%, 43.6%, 0.15)" stroke-width="1.5"></path><path d="M102.89 618.75L102.89 618.75" stroke="hsla(170.89999999999998, 100%, 43.6%, 0.15)" stroke-width="1.5"></path><path d="M102.89 618.75L160.37 604.24" stroke="hsla(170.89999999999998, 100%, 43.6%, 0.15)" stroke-width="1.5"></path><path d="M102.89 618.75L111.22 532.14" stroke="hsla(170.89999999999998, 100%, 43.6%, 0.15)" stroke-width="1.5"></path><path d="M102.89 618.75L164.1 528.68" stroke="hsla(170.89999999999998, 100%, 43.6%, 0.15)" stroke-width="1.5"></path><path d="M102.89 618.75L18.32 520.32" stroke="hsla(170.89999999999998, 100%, 43.6%, 0.15)" stroke-width="1.5"></path><path d="M173.76 457.99L173.76 457.99" stroke="hsla(170.89999999999998, 100%, 43.6%, 0.15)" stroke-width="1.5"></path><path d="M173.76 457.99L236.98 477.1" stroke="hsla(170.89999999999998, 100%, 43.6%, 0.15)" stroke-width="1.5"></path><path d="M160.37 604.24L160.37 604.24" stroke="hsla(170.89999999999998, 100%, 43.6%, 0.15)" stroke-width="1.5"></path><path d="M160.37 604.24L111.22 532.14" stroke="hsla(170.89999999999998, 100%, 43.6%, 0.15)" stroke-width="1.5"></path><path d="M160.37 604.24L265.24 612.17" stroke="hsla(170.89999999999998, 100%, 43.6%, 0.15)" stroke-width="1.5"></path><path d="M251.62 102.45L251.62 102.45" stroke="hsla(170.89999999999998, 100%, 43.6%, 0.15)" stroke-width="1.5"></path><path d="M251.62 102.45L331.35 107.44" stroke="hsla(170.89999999999998, 100%, 43.6%, 0.15)" stroke-width="1.5"></path><path d="M255.61 187.32L255.61 187.32" stroke="hsla(170.89999999999998, 100%, 43.6%, 0.15)" stroke-width="1.5"></path><path d="M255.61 187.32L233.64 231.89" stroke="hsla(170.89999999999998, 100%, 43.6%, 0.15)" stroke-width="1.5"></path><path d="M255.61 187.32L303.56 253.61" stroke="hsla(170.89999999999998, 100%, 43.6%, 0.15)" stroke-width="1.5"></path><path d="M255.61 187.32L251.62 102.45" stroke="hsla(170.89999999999998, 100%, 43.6%, 0.15)" stroke-width="1.5"></path><path d="M255.61 187.32L331.35 107.44" stroke="hsla(170.89999999999998, 100%, 43.6%, 0.15)" stroke-width="1.5"></path><path d="M233.64 231.89L233.64 231.89" stroke="hsla(170.89999999999998, 100%, 43.6%, 0.15)" stroke-width="1.5"></path><path d="M233.64 231.89L303.56 253.61" stroke="hsla(170.89999999999998, 100%, 43.6%, 0.15)" stroke-width="1.5"></path><path d="M233.64 231.89L254.67 312.02" stroke="hsla(170.89999999999998, 100%, 43.6%, 0.15)" stroke-width="1.5"></path><path d="M254.67 312.02L254.67 312.02" stroke="hsla(170.89999999999998, 100%, 43.6%, 0.15)" stroke-width="1.5"></path><path d="M254.67 312.02L303.56 253.61" stroke="hsla(170.89999999999998, 100%, 43.6%, 0.15)" stroke-width="1.5"></path><path d="M254.67 312.02L336.42 326.75" stroke="hsla(170.89999999999998, 100%, 43.6%, 0.15)" stroke-width="1.5"></path><path d="M254.67 312.02L302.08 405.87" stroke="hsla(170.89999999999998, 100%, 43.6%, 0.15)" stroke-width="1.5"></path><path d="M254.67 312.02L160.99 392.69" stroke="hsla(170.89999999999998, 100%, 43.6%, 0.15)" stroke-width="1.5"></path><path d="M236.98 477.1L236.98 477.1" stroke="hsla(170.89999999999998, 100%, 43.6%, 0.15)" stroke-width="1.5"></path><path d="M236.98 477.1L248.13 515.9" stroke="hsla(170.89999999999998, 100%, 43.6%, 0.15)" stroke-width="1.5"></path><path d="M236.98 477.1L322.41 477.25" stroke="hsla(170.89999999999998, 100%, 43.6%, 0.15)" stroke-width="1.5"></path><path d="M236.98 477.1L317.23 516.11" stroke="hsla(170.89999999999998, 100%, 43.6%, 0.15)" stroke-width="1.5"></path><path d="M236.98 477.1L302.08 405.87" stroke="hsla(170.89999999999998, 100%, 43.6%, 0.15)" stroke-width="1.5"></path><path d="M248.13 515.9L248.13 515.9" stroke="hsla(170.89999999999998, 100%, 43.6%, 0.15)" stroke-width="1.5"></path><path d="M265.24 612.17L265.24 612.17" stroke="hsla(170.89999999999998, 100%, 43.6%, 0.15)" stroke-width="1.5"></path><path d="M265.24 612.17L329.15 615.59" stroke="hsla(170.89999999999998, 100%, 43.6%, 0.15)" stroke-width="1.5"></path><path d="M265.24 612.17L248.13 515.9" stroke="hsla(170.89999999999998, 100%, 43.6%, 0.15)" stroke-width="1.5"></path><path d="M265.24 612.17L317.23 516.11" stroke="hsla(170.89999999999998, 100%, 43.6%, 0.15)" stroke-width="1.5"></path><path d="M336.91 -39.02L336.91 -39.02" stroke="hsla(170.89999999999998, 100%, 43.6%, 0.15)" stroke-width="1.5"></path><path d="M336.91 -39.02L387.52 -41.88" stroke="hsla(170.89999999999998, 100%, 43.6%, 0.15)" stroke-width="1.5"></path><path d="M336.91 -39.02L317.22 28.11" stroke="hsla(170.89999999999998, 100%, 43.6%, 0.15)" stroke-width="1.5"></path><path d="M336.91 -39.02L402.73 30.47" stroke="hsla(170.89999999999998, 100%, 43.6%, 0.15)" stroke-width="1.5"></path><path d="M336.91 -39.02L331.35 107.44" stroke="hsla(170.89999999999998, 100%, 43.6%, 0.15)" stroke-width="1.5"></path><path d="M317.22 28.11L317.22 28.11" stroke="hsla(170.89999999999998, 100%, 43.6%, 0.15)" stroke-width="1.5"></path><path d="M317.22 28.11L331.35 107.44" stroke="hsla(170.89999999999998, 100%, 43.6%, 0.15)" stroke-width="1.5"></path><path d="M317.22 28.11L402.73 30.47" stroke="hsla(170.89999999999998, 100%, 43.6%, 0.15)" stroke-width="1.5"></path><path d="M317.22 28.11L251.62 102.45" stroke="hsla(170.89999999999998, 100%, 43.6%, 0.15)" stroke-width="1.5"></path><path d="M317.22 28.11L387.52 -41.88" stroke="hsla(170.89999999999998, 100%, 43.6%, 0.15)" stroke-width="1.5"></path><path d="M331.35 107.44L331.35 107.44" stroke="hsla(170.89999999999998, 100%, 43.6%, 0.15)" stroke-width="1.5"></path><path d="M331.35 107.44L390.02 113.3" stroke="hsla(170.89999999999998, 100%, 43.6%, 0.15)" stroke-width="1.5"></path><path d="M331.35 107.44L376.6 162.71" stroke="hsla(170.89999999999998, 100%, 43.6%, 0.15)" stroke-width="1.5"></path><path d="M303.56 253.61L303.56 253.61" stroke="hsla(170.89999999999998, 100%, 43.6%, 0.15)" stroke-width="1.5"></path><path d="M336.42 326.75L336.42 326.75" stroke="hsla(170.89999999999998, 100%, 43.6%, 0.15)" stroke-width="1.5"></path><path d="M336.42 326.75L394.58 334.9" stroke="hsla(170.89999999999998, 100%, 43.6%, 0.15)" stroke-width="1.5"></path><path d="M336.42 326.75L303.56 253.61" stroke="hsla(170.89999999999998, 100%, 43.6%, 0.15)" stroke-width="1.5"></path><path d="M336.42 326.75L302.08 405.87" stroke="hsla(170.89999999999998, 100%, 43.6%, 0.15)" stroke-width="1.5"></path><path d="M302.08 405.87L302.08 405.87" stroke="hsla(170.89999999999998, 100%, 43.6%, 0.15)" stroke-width="1.5"></path><path d="M302.08 405.87L322.41 477.25" stroke="hsla(170.89999999999998, 100%, 43.6%, 0.15)" stroke-width="1.5"></path><path d="M322.41 477.25L322.41 477.25" stroke="hsla(170.89999999999998, 100%, 43.6%, 0.15)" stroke-width="1.5"></path><path d="M322.41 477.25L317.23 516.11" stroke="hsla(170.89999999999998, 100%, 43.6%, 0.15)" stroke-width="1.5"></path><path d="M322.41 477.25L399.26 476.81" stroke="hsla(170.89999999999998, 100%, 43.6%, 0.15)" stroke-width="1.5"></path><path d="M317.23 516.11L317.23 516.11" stroke="hsla(170.89999999999998, 100%, 43.6%, 0.15)" stroke-width="1.5"></path><path d="M317.23 516.11L374.74 550.23" stroke="hsla(170.89999999999998, 100%, 43.6%, 0.15)" stroke-width="1.5"></path><path d="M317.23 516.11L248.13 515.9" stroke="hsla(170.89999999999998, 100%, 43.6%, 0.15)" stroke-width="1.5"></path><path d="M329.15 615.59L329.15 615.59" stroke="hsla(170.89999999999998, 100%, 43.6%, 0.15)" stroke-width="1.5"></path><path d="M329.15 615.59L393.86 588.46" stroke="hsla(170.89999999999998, 100%, 43.6%, 0.15)" stroke-width="1.5"></path><path d="M329.15 615.59L374.74 550.23" stroke="hsla(170.89999999999998, 100%, 43.6%, 0.15)" stroke-width="1.5"></path><path d="M329.15 615.59L317.23 516.11" stroke="hsla(170.89999999999998, 100%, 43.6%, 0.15)" stroke-width="1.5"></path><path d="M329.15 615.59L248.13 515.9" stroke="hsla(170.89999999999998, 100%, 43.6%, 0.15)" stroke-width="1.5"></path><path d="M387.52 -41.88L387.52 -41.88" stroke="hsla(170.89999999999998, 100%, 43.6%, 0.15)" stroke-width="1.5"></path><path d="M387.52 -41.88L390.02 113.3" stroke="hsla(170.89999999999998, 100%, 43.6%, 0.15)" stroke-width="1.5"></path><path d="M387.52 -41.88L331.35 107.44" stroke="hsla(170.89999999999998, 100%, 43.6%, 0.15)" stroke-width="1.5"></path><path d="M390.02 113.3L390.02 113.3" stroke="hsla(170.89999999999998, 100%, 43.6%, 0.15)" stroke-width="1.5"></path><path d="M390.02 113.3L376.6 162.71" stroke="hsla(170.89999999999998, 100%, 43.6%, 0.15)" stroke-width="1.5"></path><path d="M390.02 113.3L317.22 28.11" stroke="hsla(170.89999999999998, 100%, 43.6%, 0.15)" stroke-width="1.5"></path><path d="M390.02 113.3L377.05 244.22" stroke="hsla(170.89999999999998, 100%, 43.6%, 0.15)" stroke-width="1.5"></path><path d="M390.02 113.3L251.62 102.45" stroke="hsla(170.89999999999998, 100%, 43.6%, 0.15)" stroke-width="1.5"></path><path d="M376.6 162.71L376.6 162.71" stroke="hsla(170.89999999999998, 100%, 43.6%, 0.15)" stroke-width="1.5"></path><path d="M376.6 162.71L303.56 253.61" stroke="hsla(170.89999999999998, 100%, 43.6%, 0.15)" stroke-width="1.5"></path><path d="M376.6 162.71L255.61 187.32" stroke="hsla(170.89999999999998, 100%, 43.6%, 0.15)" stroke-width="1.5"></path><path d="M394.58 334.9L394.58 334.9" stroke="hsla(170.89999999999998, 100%, 43.6%, 0.15)" stroke-width="1.5"></path><path d="M394.58 334.9L377.05 244.22" stroke="hsla(170.89999999999998, 100%, 43.6%, 0.15)" stroke-width="1.5"></path><path d="M399.26 476.81L399.26 476.81" stroke="hsla(170.89999999999998, 100%, 43.6%, 0.15)" stroke-width="1.5"></path><path d="M399.26 476.81L374.74 550.23" stroke="hsla(170.89999999999998, 100%, 43.6%, 0.15)" stroke-width="1.5"></path><path d="M399.26 476.81L317.23 516.11" stroke="hsla(170.89999999999998, 100%, 43.6%, 0.15)" stroke-width="1.5"></path><path d="M399.26 476.81L393.86 588.46" stroke="hsla(170.89999999999998, 100%, 43.6%, 0.15)" stroke-width="1.5"></path><path d="M399.26 476.81L302.08 405.87" stroke="hsla(170.89999999999998, 100%, 43.6%, 0.15)" stroke-width="1.5"></path><path d="M399.26 476.81L394.58 334.9" stroke="hsla(170.89999999999998, 100%, 43.6%, 0.15)" stroke-width="1.5"></path><path d="M374.74 550.23L374.74 550.23" stroke="hsla(170.89999999999998, 100%, 43.6%, 0.15)" stroke-width="1.5"></path><path d="M374.74 550.23L393.86 588.46" stroke="hsla(170.89999999999998, 100%, 43.6%, 0.15)" stroke-width="1.5"></path><path d="M374.74 550.23L322.41 477.25" stroke="hsla(170.89999999999998, 100%, 43.6%, 0.15)" stroke-width="1.5"></path><path d="M393.86 588.46L393.86 588.46" stroke="hsla(170.89999999999998, 100%, 43.6%, 0.15)" stroke-width="1.5"></path><circle r="25" cx="31.34" cy="611.26" fill="url(#SvgjsRadialGradient1003)"></circle><circle r="25" cx="160.99" cy="392.69" fill="url(#SvgjsRadialGradient1003)"></circle><circle r="25" cx="164.1" cy="528.68" fill="url(#SvgjsRadialGradient1003)"></circle><circle r="25" cx="252.44" cy="380.52" fill="url(#SvgjsRadialGradient1003)"></circle><circle r="25" cx="402.73" cy="30.47" fill="url(#SvgjsRadialGradient1003)"></circle><circle r="25" cx="377.05" cy="244.22" fill="url(#SvgjsRadialGradient1003)"></circle><circle r="5" cx="-31.03" cy="453.13" fill="rgba(236, 249, 247, 0.575)"></circle><circle r="5" cx="-20.83" cy="543.7" fill="rgba(236, 249, 247, 0.575)"></circle><circle r="5" cx="-30.5" cy="598.46" fill="rgba(236, 249, 247, 0.575)"></circle><circle r="5" cx="30.66" cy="454.29" fill="rgba(236, 249, 247, 0.575)"></circle><circle r="5" cx="18.32" cy="520.32" fill="rgba(236, 249, 247, 0.575)"></circle><circle r="5" cx="118.5" cy="448.61" fill="rgba(236, 249, 247, 0.575)"></circle><circle r="5" cx="111.22" cy="532.14" fill="rgba(236, 249, 247, 0.575)"></circle><circle r="5" cx="102.89" cy="618.75" fill="rgba(236, 249, 247, 0.575)"></circle><circle r="5" cx="173.76" cy="457.99" fill="rgba(236, 249, 247, 0.575)"></circle><circle r="5" cx="160.37" cy="604.24" fill="rgba(236, 249, 247, 0.575)"></circle><circle r="5" cx="251.62" cy="102.45" fill="rgba(236, 249, 247, 0.575)"></circle><circle r="5" cx="255.61" cy="187.32" fill="rgba(236, 249, 247, 0.575)"></circle><circle r="5" cx="233.64" cy="231.89" fill="rgba(236, 249, 247, 0.575)"></circle><circle r="5" cx="254.67" cy="312.02" fill="rgba(236, 249, 247, 0.575)"></circle><circle r="5" cx="236.98" cy="477.1" fill="rgba(236, 249, 247, 0.575)"></circle><circle r="5" cx="248.13" cy="515.9" fill="rgba(236, 249, 247, 0.575)"></circle><circle r="5" cx="265.24" cy="612.17" fill="rgba(236, 249, 247, 0.575)"></circle><circle r="5" cx="336.91" cy="-39.02" fill="rgba(236, 249, 247, 0.575)"></circle><circle r="5" cx="317.22" cy="28.11" fill="rgba(236, 249, 247, 0.575)"></circle><circle r="5" cx="331.35" cy="107.44" fill="rgba(236, 249, 247, 0.575)"></circle><circle r="5" cx="303.56" cy="253.61" fill="rgba(236, 249, 247, 0.575)"></circle><circle r="5" cx="336.42" cy="326.75" fill="rgba(236, 249, 247, 0.575)"></circle><circle r="5" cx="302.08" cy="405.87" fill="rgba(236, 249, 247, 0.575)"></circle><circle r="5" cx="322.41" cy="477.25" fill="rgba(236, 249, 247, 0.575)"></circle><circle r="5" cx="317.23" cy="516.11" fill="rgba(236, 249, 247, 0.575)"></circle><circle r="5" cx="329.15" cy="615.59" fill="rgba(236, 249, 247, 0.575)"></circle><circle r="5" cx="387.52" cy="-41.88" fill="rgba(236, 249, 247, 0.575)"></circle><circle r="5" cx="390.02" cy="113.3" fill="rgba(236, 249, 247, 0.575)"></circle><circle r="5" cx="376.6" cy="162.71" fill="rgba(236, 249, 247, 0.575)"></circle><circle r="5" cx="394.58" cy="334.9" fill="rgba(236, 249, 247, 0.575)"></circle><circle r="5" cx="399.26" cy="476.81" fill="rgba(236, 249, 247, 0.575)"></circle><circle r="5" cx="374.74" cy="550.23" fill="rgba(236, 249, 247, 0.575)"></circle><circle r="5" cx="393.86" cy="588.46" fill="rgba(236, 249, 247, 0.575)"></circle></g><defs><mask id="SvgjsMask1002"><rect width="320" height="568" fill="#ffffff"></rect></mask><radialGradient id="SvgjsRadialGradient1003"><stop stop-color="#ffffff" offset="0.1"></stop><stop stop-color="rgba(0, 171, 145, 0.15)" offset="0.2"></stop><stop stop-color="rgba(0, 171, 145, 0)" offset="1"></stop></radialGradient></defs></svg>