<svg width="320" height="650" viewBox="0 0 320 650" fill="none" xmlns="http://www.w3.org/2000/svg">
<g clip-path="url(#clip0)" filter="url(#filter0_d)">
<path opacity="0.1" d="M177.661 256.454C163.685 255.99 150.364 251.681 137.663 246.969C124.962 242.256 112.373 237.034 98.7246 234.536C89.9494 232.928 79.9138 232.702 72.8447 237.195C66.0406 241.516 63.8428 248.977 62.6606 255.9C61.7714 261.109 61.2556 266.59 63.6862 271.468C65.3782 274.852 68.3809 277.698 70.4582 280.941C77.6839 292.223 72.5758 306.137 64.744 317.163C61.0709 322.338 56.8098 327.261 53.9757 332.764C51.1417 338.266 49.829 344.569 52.3098 350.181C54.7685 355.739 60.6253 359.921 66.9719 362.859C79.8616 368.821 95.0496 370.527 109.86 371.504C142.645 373.645 175.606 372.717 208.476 371.79C220.641 371.445 232.861 371.098 244.827 369.298C251.473 368.3 258.335 366.717 263.16 362.895C269.284 358.042 270.804 349.828 266.699 343.743C259.815 333.54 240.781 331.004 235.968 320.053C233.32 314.026 236.04 307.31 239.89 301.72C248.145 289.728 261.986 279.207 262.715 265.498C263.217 256.082 256.563 246.654 246.274 242.199C235.492 237.524 220.539 238.114 212.585 245.84C204.394 253.799 189.999 256.862 177.661 256.454Z" fill="#6C63FF"/>
<path d="M99.6226 368.955C99.6226 368.955 88.5834 360.986 86.498 350.85C85.6523 346.592 83.384 342.712 80.0331 339.79C78.4301 338.415 76.6988 337.183 74.8607 336.11" stroke="#535461" stroke-width="2" stroke-miterlimit="10"/>
<path d="M73.5099 329.724C74.4773 330.974 74.9149 336.269 74.9149 336.269C74.9149 336.269 69.7425 334.324 68.7731 333.076C68.3076 332.476 68.1107 331.724 68.2257 330.986C68.3406 330.248 68.7581 329.583 69.3863 329.139C70.0144 328.694 70.8018 328.506 71.5751 328.616C72.3484 328.726 73.0444 329.124 73.5099 329.724Z" fill="#6C63FF"/>
<path d="M82.7869 333.879C82.8872 335.43 80.2438 340.102 80.2438 340.102C80.2438 340.102 77.0063 335.782 76.904 334.232C76.865 333.493 77.1327 332.769 77.649 332.217C78.1652 331.664 78.8885 331.329 79.6621 331.283C80.4356 331.236 81.1972 331.483 81.7817 331.969C82.3662 332.455 82.7266 333.141 82.7849 333.879H82.7869Z" fill="#6C63FF"/>
<path d="M91.7788 345.823C91.0482 347.21 86.2933 349.97 86.2933 349.97C86.2933 349.97 85.7855 344.681 86.5161 343.293C86.8757 342.64 87.4893 342.149 88.2247 341.924C88.9602 341.699 89.7587 341.759 90.4484 342.09C91.1382 342.422 91.6641 342.999 91.9129 343.697C92.1617 344.395 92.1135 345.158 91.7788 345.823Z" fill="#6C63FF"/>
<path d="M96.4534 356.318C95.9777 357.803 91.7808 361.289 91.7808 361.289C91.7808 361.289 90.3417 356.158 90.8173 354.671C91.046 353.958 91.5621 353.36 92.2523 353.01C92.9424 352.659 93.75 352.585 94.4974 352.804C95.2448 353.022 95.8708 353.515 96.2376 354.174C96.6044 354.833 96.682 355.604 96.4534 356.318Z" fill="#6C63FF"/>
<path d="M75.4588 343.858C77.0645 344.065 82.1406 341.877 82.1406 341.877C82.1406 341.877 77.8574 338.488 76.2436 338.281C75.4691 338.182 74.685 338.38 74.0637 338.833C73.4424 339.286 73.0349 339.956 72.9309 340.695C72.8268 341.435 73.0347 342.183 73.5088 342.777C73.9829 343.37 74.6843 343.759 75.4588 343.858Z" fill="#6C63FF"/>
<path d="M81.0888 356.068C82.6945 355.806 86.8433 352.27 86.8433 352.27C86.8433 352.27 81.693 350.261 80.0893 350.524C79.7053 350.584 79.3376 350.716 79.0074 350.913C78.6772 351.109 78.3911 351.366 78.1654 351.669C77.9398 351.972 77.7792 352.314 77.6929 352.676C77.6066 353.038 77.5962 353.413 77.6625 353.779C77.7288 354.146 77.8703 354.495 78.0789 354.809C78.2876 355.123 78.5592 355.394 78.8782 355.606C79.1971 355.819 79.557 355.97 79.9371 356.049C80.3172 356.128 80.71 356.135 81.0928 356.068H81.0888Z" fill="#6C63FF"/>
<path d="M88.2643 367.221C89.8921 367.221 94.6088 364.405 94.6088 364.405C94.6088 364.405 89.8901 361.594 88.2623 361.594C87.4808 361.594 86.7314 361.89 86.1788 362.418C85.6263 362.945 85.3158 363.661 85.3158 364.407C85.3158 365.153 85.6263 365.869 86.1788 366.397C86.7314 366.924 87.4808 367.221 88.2623 367.221H88.2643Z" fill="#6C63FF"/>
<path d="M206.863 300.031C206.863 300.031 213.668 288.523 223.924 285.207C228.231 283.841 231.958 281.179 234.546 277.62C235.759 275.918 236.807 274.113 237.675 272.229" stroke="#535461" stroke-width="2" stroke-miterlimit="10"/>
<path d="M244.114 270.12C242.946 271.201 237.508 272.32 237.508 272.32C237.508 272.32 238.843 267.165 240.011 266.082C240.575 265.578 241.324 265.306 242.096 265.323C242.868 265.341 243.602 265.648 244.14 266.177C244.678 266.706 244.976 267.416 244.971 268.154C244.966 268.891 244.658 269.597 244.114 270.12Z" fill="#6C63FF"/>
<path d="M241.039 279.44C239.433 279.743 234.241 277.861 234.241 277.861C234.241 277.861 238.295 274.22 239.891 273.923C240.274 273.842 240.67 273.834 241.056 273.901C241.442 273.968 241.81 274.108 242.139 274.313C242.468 274.518 242.75 274.783 242.97 275.094C243.19 275.404 243.342 275.754 243.419 276.121C243.495 276.489 243.494 276.867 243.415 277.234C243.337 277.601 243.182 277.95 242.96 278.259C242.738 278.568 242.454 278.832 242.124 279.035C241.794 279.238 241.425 279.376 241.039 279.44Z" fill="#6C63FF"/>
<path d="M229.847 289.537C228.31 289.029 224.815 284.897 224.815 284.897C224.815 284.897 230.234 283.712 231.776 284.22C232.146 284.338 232.488 284.524 232.783 284.769C233.077 285.013 233.318 285.311 233.49 285.645C233.663 285.979 233.765 286.343 233.789 286.715C233.813 287.087 233.76 287.46 233.632 287.812C233.505 288.164 233.305 288.488 233.045 288.766C232.785 289.044 232.469 289.269 232.117 289.43C231.765 289.59 231.383 289.682 230.993 289.701C230.604 289.719 230.214 289.663 229.847 289.537Z" fill="#6C63FF"/>
<path d="M219.562 295.355C217.957 295.102 213.79 291.585 213.79 291.585C213.79 291.585 218.926 289.542 220.53 289.795C221.302 289.917 221.992 290.326 222.448 290.932C222.904 291.539 223.089 292.294 222.962 293.031C222.835 293.768 222.406 294.427 221.771 294.862C221.135 295.298 220.344 295.474 219.573 295.353L219.562 295.355Z" fill="#6C63FF"/>
<path d="M229.706 273.831C229.704 275.385 232.657 279.895 232.657 279.895C232.657 279.895 235.605 275.391 235.605 273.838C235.616 273.463 235.547 273.089 235.404 272.739C235.26 272.39 235.045 272.071 234.77 271.802C234.496 271.533 234.168 271.319 233.805 271.173C233.443 271.027 233.053 270.952 232.66 270.952C232.267 270.952 231.877 271.027 231.515 271.173C231.152 271.319 230.824 271.533 230.549 271.802C230.275 272.071 230.06 272.39 229.916 272.739C229.773 273.089 229.704 273.463 229.715 273.838L229.706 273.831Z" fill="#6C63FF"/>
<path d="M217.778 280.78C218.264 282.263 222.487 285.723 222.487 285.723C222.487 285.723 223.892 280.583 223.402 279.099C223.148 278.412 222.625 277.846 221.942 277.519C221.26 277.193 220.471 277.133 219.743 277.351C219.015 277.568 218.403 278.048 218.037 278.687C217.672 279.327 217.58 280.077 217.782 280.78H217.778Z" fill="#6C63FF"/>
<path d="M207.166 289.054C207.383 290.587 210.932 294.682 210.932 294.682C210.932 294.682 213.222 289.843 213.005 288.304C212.962 287.931 212.842 287.57 212.65 287.243C212.459 286.915 212.201 286.627 211.892 286.396C211.582 286.165 211.228 285.995 210.848 285.897C210.469 285.799 210.073 285.774 209.684 285.824C209.295 285.874 208.92 285.998 208.581 286.188C208.243 286.378 207.947 286.631 207.713 286.932C207.478 287.233 207.309 287.576 207.215 287.94C207.121 288.305 207.105 288.683 207.166 289.054Z" fill="#6C63FF"/>
<path opacity="0.25" d="M244.114 270.12C242.946 271.201 237.508 272.32 237.508 272.32C237.508 272.32 238.843 267.165 240.011 266.082C240.575 265.578 241.324 265.306 242.096 265.323C242.868 265.341 243.602 265.648 244.14 266.177C244.678 266.706 244.976 267.416 244.971 268.154C244.966 268.891 244.658 269.597 244.114 270.12Z" fill="black"/>
<path opacity="0.25" d="M241.039 279.44C239.433 279.743 234.241 277.861 234.241 277.861C234.241 277.861 238.295 274.22 239.891 273.923C240.274 273.842 240.67 273.834 241.056 273.901C241.442 273.968 241.81 274.108 242.139 274.313C242.468 274.518 242.75 274.783 242.97 275.094C243.19 275.404 243.342 275.754 243.419 276.121C243.495 276.489 243.494 276.867 243.415 277.234C243.337 277.601 243.182 277.95 242.96 278.259C242.738 278.568 242.454 278.832 242.124 279.035C241.794 279.238 241.425 279.376 241.039 279.44Z" fill="black"/>
<path opacity="0.25" d="M229.847 289.537C228.31 289.029 224.815 284.897 224.815 284.897C224.815 284.897 230.234 283.712 231.776 284.22C232.146 284.338 232.488 284.524 232.783 284.769C233.077 285.013 233.318 285.311 233.49 285.645C233.663 285.979 233.765 286.343 233.789 286.715C233.813 287.087 233.76 287.46 233.632 287.812C233.505 288.164 233.305 288.488 233.045 288.766C232.785 289.044 232.469 289.269 232.117 289.43C231.765 289.59 231.383 289.682 230.993 289.701C230.604 289.719 230.214 289.663 229.847 289.537Z" fill="black"/>
<path opacity="0.25" d="M219.562 295.355C217.957 295.102 213.79 291.585 213.79 291.585C213.79 291.585 218.926 289.542 220.53 289.795C221.302 289.917 221.992 290.326 222.448 290.932C222.904 291.539 223.089 292.294 222.962 293.031C222.835 293.768 222.406 294.427 221.771 294.862C221.135 295.298 220.344 295.474 219.573 295.353L219.562 295.355Z" fill="black"/>
<path opacity="0.25" d="M229.706 273.831C229.704 275.385 232.657 279.895 232.657 279.895C232.657 279.895 235.605 275.391 235.605 273.838C235.616 273.463 235.547 273.089 235.404 272.739C235.26 272.39 235.045 272.071 234.77 271.802C234.496 271.533 234.168 271.319 233.805 271.173C233.443 271.027 233.053 270.952 232.66 270.952C232.267 270.952 231.877 271.027 231.515 271.173C231.152 271.319 230.824 271.533 230.549 271.802C230.275 272.071 230.06 272.39 229.916 272.739C229.773 273.089 229.704 273.463 229.715 273.838L229.706 273.831Z" fill="black"/>
<path opacity="0.25" d="M217.778 280.78C218.264 282.263 222.487 285.723 222.487 285.723C222.487 285.723 223.892 280.583 223.402 279.099C223.148 278.412 222.625 277.846 221.942 277.519C221.26 277.193 220.471 277.133 219.743 277.351C219.015 277.568 218.403 278.048 218.037 278.687C217.672 279.327 217.58 280.077 217.782 280.78H217.778Z" fill="black"/>
<path opacity="0.25" d="M207.166 289.054C207.383 290.587 210.932 294.682 210.932 294.682C210.932 294.682 213.222 289.843 213.005 288.304C212.962 287.931 212.842 287.57 212.65 287.243C212.459 286.915 212.201 286.627 211.892 286.396C211.582 286.165 211.228 285.995 210.848 285.897C210.469 285.799 210.073 285.774 209.684 285.824C209.295 285.874 208.92 285.998 208.581 286.188C208.243 286.378 207.947 286.631 207.713 286.932C207.478 287.233 207.309 287.576 207.215 287.94C207.121 288.305 207.105 288.683 207.166 289.054Z" fill="black"/>
<path d="M207.255 299.803C207.255 299.803 208.592 286.648 216.552 279.653C219.909 276.738 222.187 272.862 223.043 268.606C223.432 266.583 223.627 264.53 223.623 262.473" stroke="#535461" stroke-width="2" stroke-miterlimit="10"/>
<path d="M228.613 258.035C228.01 259.476 223.506 262.604 223.506 262.604C223.506 262.604 222.539 257.374 223.147 255.932C223.44 255.24 224.009 254.688 224.728 254.396C225.448 254.104 226.259 254.098 226.984 254.377C227.709 254.657 228.287 255.2 228.593 255.887C228.898 256.574 228.905 257.349 228.613 258.041V258.035Z" fill="#6C63FF"/>
<path d="M229.759 267.755C228.428 268.648 222.874 268.942 222.874 268.942C222.874 268.942 225.038 264.047 226.369 263.154C226.684 262.928 227.044 262.765 227.427 262.675C227.809 262.585 228.207 262.569 228.596 262.628C228.986 262.687 229.359 262.82 229.693 263.019C230.028 263.218 230.317 263.479 230.544 263.787C230.771 264.095 230.93 264.443 231.014 264.811C231.097 265.179 231.103 265.559 231.029 265.929C230.956 266.299 230.806 266.651 230.588 266.964C230.369 267.277 230.088 267.546 229.759 267.753V267.755Z" fill="#6C63FF"/>
<path d="M223.806 281.32C222.184 281.451 217.234 279.021 217.234 279.021C217.234 279.021 221.69 275.839 223.312 275.709C224.091 275.646 224.863 275.882 225.46 276.363C226.057 276.845 226.43 277.533 226.495 278.277C226.561 279.021 226.314 279.759 225.81 280.329C225.305 280.899 224.584 281.254 223.806 281.317V281.32Z" fill="#6C63FF"/>
<path d="M216.879 290.614C215.303 290.997 209.997 289.412 209.997 289.412C209.997 289.412 213.824 285.558 215.4 285.167C216.156 284.98 216.959 285.087 217.633 285.465C218.307 285.844 218.795 286.462 218.991 287.184C219.188 287.906 219.075 288.673 218.679 289.317C218.283 289.96 217.635 290.426 216.879 290.614Z" fill="#6C63FF"/>
<path d="M217.019 267.012C217.678 268.432 222.282 271.42 222.282 271.42C222.282 271.42 223.065 266.161 222.407 264.741C222.079 264.076 221.491 263.561 220.771 263.304C220.05 263.048 219.252 263.07 218.549 263.368C217.845 263.665 217.292 264.213 217.006 264.895C216.72 265.577 216.725 266.339 217.019 267.017V267.012Z" fill="#6C63FF"/>
<path d="M209.063 277.978C210.137 279.145 215.464 280.675 215.464 280.675C215.464 280.675 214.565 275.433 213.491 274.266C213.237 273.982 212.927 273.75 212.579 273.581C212.231 273.413 211.851 273.313 211.461 273.286C211.072 273.259 210.681 273.307 210.311 273.426C209.941 273.544 209.599 273.732 209.306 273.978C209.012 274.224 208.773 274.523 208.602 274.858C208.431 275.193 208.331 275.558 208.308 275.93C208.286 276.302 208.341 276.675 208.47 277.026C208.6 277.378 208.802 277.701 209.063 277.978Z" fill="#6C63FF"/>
<path d="M202.863 289.654C203.714 290.976 208.694 293.343 208.694 293.343C208.694 293.343 208.736 288.032 207.891 286.708C207.47 286.096 206.817 285.665 206.069 285.506C205.321 285.347 204.538 285.473 203.885 285.856C203.232 286.239 202.762 286.85 202.573 287.559C202.384 288.268 202.492 289.019 202.873 289.654H202.863Z" fill="#6C63FF"/>
<path d="M197.018 248.285C197.352 247.118 197.753 245.945 198.034 244.763C197.697 245.945 197.293 247.122 197.018 248.285Z" fill="url(#paint0_linear)"/>
<path d="M195.525 259.528C195.497 259.482 195.477 259.436 195.455 259.394C195.455 259.374 195.435 259.359 195.427 259.34C195.383 259.36 195.338 259.377 195.292 259.392C195.204 259.424 195.114 259.455 195.021 259.48C194.929 259.505 194.891 259.518 194.821 259.534C194.762 259.553 194.703 259.567 194.642 259.578L194.658 259.612C194.732 259.597 194.805 259.583 194.879 259.564L194.899 259.802C194.983 259.802 195.062 259.79 195.138 259.79C195.174 259.788 195.21 259.788 195.246 259.79C195.403 259.79 195.539 259.79 195.648 259.79C195.605 259.704 195.561 259.614 195.525 259.528ZM236.27 321.456C235.326 320.243 233.444 307.222 233.444 307.222C233.444 307.222 229.741 297.964 230.75 294.268C231.76 290.573 227.992 281.119 227.992 281.119C227.992 281.119 225.504 280.086 225.369 278.553C225.369 278.553 215.207 275.487 214.731 273.187C214.346 271.301 208.044 269.948 205.78 269.521C205.089 266.86 204.395 264.378 203.883 263.024C203.744 262.602 203.614 262.238 203.493 261.95C202.628 259.842 199.955 259.65 198.016 259.819C197.932 259.46 197.776 259.119 197.556 258.817C197.524 258.713 197.461 258.62 197.374 258.55C197.332 258.517 197.288 258.486 197.241 258.458C197.206 258.396 197.16 258.34 197.105 258.294C197.05 258.246 196.989 258.205 196.924 258.171C196.877 258.147 196.829 258.126 196.78 258.108C196.663 258.065 196.543 258.034 196.42 258.014C196.277 257.986 196.132 257.968 195.987 257.96C196.341 257.812 196.657 257.592 196.912 257.314C197.086 257.119 197.215 256.892 197.291 256.647C197.355 256.443 197.383 256.231 197.376 256.019C197.324 256.106 197.263 256.189 197.195 256.266C197.279 255.417 196.81 254.554 196.541 253.709C196.215 252.609 196.154 251.452 196.364 250.327C196.633 248.629 197.299 246.911 197.751 245.183C197.752 245.173 197.752 245.163 197.751 245.154C197.988 244.295 198.134 243.416 198.189 242.53C198.267 240.742 197.787 238.958 197.016 237.329C196.332 235.886 195.322 234.466 193.777 233.879C192.629 233.436 191.342 233.507 190.106 233.434C187.332 233.27 184.687 232.338 182.049 231.491C179.412 230.644 176.698 229.874 173.922 230.021C171.147 230.169 168.29 231.447 167.024 233.793C166.623 234.525 166.392 235.339 165.912 236.027C165.013 237.325 163.403 237.975 162.06 238.87C160.718 239.765 159.535 241.035 159.05 242.551C158.784 243.368 158.747 244.237 158.941 245.072C158.985 245.26 159.041 245.446 159.11 245.627C159.3 246.134 159.597 246.597 159.983 246.99C160.274 247.28 160.608 247.527 160.974 247.724C161.435 247.968 161.928 248.151 162.44 248.268C162.422 248.326 162.404 248.387 162.383 248.446C162.351 248.544 162.323 248.638 162.293 248.744C162.227 248.979 162.165 249.219 162.113 249.46C162.11 249.478 162.11 249.495 162.113 249.512C161.866 250.602 161.742 251.714 161.743 252.83C161.743 253.357 161.771 253.884 161.828 254.409C162.63 262.186 169.354 268.321 177.662 268.719C177.947 268.733 178.234 268.74 178.525 268.74C178.657 268.74 178.788 268.74 178.926 268.74C179.057 268.905 179.185 269.074 179.308 269.239C179.43 269.404 179.542 269.572 179.649 269.737L179.358 269.45L179.067 269.195C178.988 269.298 178.9 269.395 178.804 269.484C178.614 269.42 178.42 269.368 178.224 269.327C177.391 269.151 176.122 269.085 174.452 269.567C172.917 270.005 171.04 270.908 168.844 272.623L158.144 278.756L152.356 282.118L150.27 286.986C150.27 286.986 148.703 292.77 146.959 299.397C146.89 299.416 146.824 299.435 146.758 299.458C146.617 299.443 146.475 299.435 146.332 299.435C145.321 299.433 144.347 299.805 143.616 300.474C142.886 301.143 142.455 302.056 142.415 303.021C138.946 307.046 138.75 311.071 139.564 312.918C139.638 313.091 139.731 313.256 139.841 313.411C140.375 314.147 141.373 316.044 142.384 318.066C142.358 318.233 142.342 318.373 142.334 318.478C142.332 318.512 142.332 318.547 142.334 318.581C142.334 318.581 142.936 327.265 140.929 329.755C140.49 330.297 140.556 331.01 140.929 331.8C142.274 334.64 147.591 338.433 147.591 338.433C147.591 338.433 153.968 338.4 157.52 338.03C157.51 338.371 157.502 338.711 157.494 339.042C157.414 342.392 157.414 345.2 157.414 345.2L157.281 348.713C157.281 348.713 156.077 356.116 155.475 358.157C155.096 359.438 155.533 371.291 155.915 380.006H218.742C219.48 374.85 218.438 359.187 218.438 359.187C218.438 359.187 217.449 355.137 217.413 351.607C217.411 351.603 217.41 351.599 217.41 351.594C217.41 351.59 217.411 351.586 217.413 351.582C217.413 351.273 217.413 350.972 217.425 350.677L217.881 350.662L218.699 350.635H218.774C218.774 350.635 218.794 350.562 218.84 350.443C218.948 350.148 219.096 349.866 219.279 349.606C219.629 349.113 220.175 348.63 220.996 348.598C221.449 348.581 222.152 348.23 222.944 347.712C222.95 347.714 222.955 347.714 222.961 347.712C225.094 346.334 227.914 343.791 228.599 343.373C229.54 342.799 234.048 338.965 234.048 338.965C234.048 338.965 234.72 338.153 235.437 337.174L235.463 337.139C236.354 335.912 237.301 334.446 237.069 333.984C236.667 333.157 237.338 331.177 237.338 331.177C239.431 327.518 237.213 322.669 236.27 321.456ZM197.458 262.508C197.477 262.565 197.489 262.624 197.494 262.684C197.444 262.621 197.394 262.554 197.344 262.493L197.295 262.431L197.261 262.385L197.338 262.286C197.338 262.286 197.338 262.286 197.338 262.299C197.391 262.361 197.431 262.432 197.458 262.508ZM196.784 260.81C196.565 260.852 196.392 260.89 196.28 260.919C196.137 260.678 196.001 260.436 195.878 260.191C196.2 260.369 196.503 260.576 196.784 260.81ZM196.406 261.113C196.406 261.109 196.406 261.105 196.406 261.101L196.422 261.113C196.505 261.164 196.585 261.214 196.659 261.266C196.725 261.312 196.786 261.356 196.846 261.402C196.806 261.469 196.762 261.538 196.717 261.594C196.647 261.488 196.581 261.387 196.517 261.281C196.477 261.239 196.44 261.182 196.406 261.113ZM195.202 258.748C195.59 258.711 195.98 258.711 196.368 258.748C196.422 258.748 196.471 258.757 196.519 258.765C196.628 258.781 196.734 258.807 196.838 258.844C197.075 259.16 197.221 259.531 197.261 259.919L197.153 259.934L197.047 259.953C196.846 259.986 196.645 260.018 196.489 260.049L196.288 260.089C196.021 260.145 195.866 260.187 195.86 260.189C195.834 260.137 195.808 260.089 195.78 260.04C195.736 259.957 195.69 259.873 195.65 259.79C195.609 259.708 195.557 259.614 195.515 259.528C195.487 259.482 195.467 259.436 195.445 259.394C195.445 259.374 195.425 259.359 195.417 259.34C195.405 259.32 195.395 259.299 195.387 259.277C195.264 259.039 195.152 258.801 195.043 258.568C195.031 258.545 195.021 258.52 195.011 258.497L195.164 258.487V258.537L195.202 258.748ZM147.314 377.637C147.298 374.783 147.081 371.696 146.479 368.798C146.222 367.566 145.957 366.333 145.688 365.122C145.62 364.819 145.554 364.52 145.487 364.221L144.869 364.3H144.813C143.127 356.709 141.365 350.02 141.365 350.02C141.365 350.02 137.864 337.258 138.27 336.24C138.322 336.108 138.256 335.751 138.107 335.228C137.26 332.327 133.724 324.331 132.487 321.598C132.487 321.587 132.477 321.573 132.473 321.564C132.273 321.105 132.128 320.797 132.084 320.707L132.375 316.628L132.391 316.383L132.429 315.862L132.413 315.848L132.429 315.607C132.429 315.607 129.374 313.215 124.2 311.488C123.999 311.419 123.786 311.352 123.576 311.287C123.835 309.637 124.178 307.774 124.625 305.959C124.668 305.777 124.714 305.601 124.762 305.423C124.804 305.244 124.852 305.072 124.9 304.897C124.977 304.614 125.059 304.334 125.143 304.058C125.422 303.974 125.697 303.88 125.968 303.78L126.073 303.742C129.411 302.502 132.165 300.148 133.826 297.118C135.486 294.088 135.941 290.585 135.105 287.26C134.628 285.374 133.748 283.602 132.519 282.056C132.427 281.938 132.329 281.819 132.23 281.702C132.132 281.585 132.014 281.455 131.903 281.336C132.483 280.077 133.168 278.879 133.224 277.654C133.234 277.499 133.234 277.344 133.224 277.188V277.169C133.15 276.382 132.784 275.584 131.933 274.747C130.691 273.518 128.923 272.895 127.154 272.597C125.386 272.298 123.584 272.29 121.805 272.089C118.857 271.751 115.985 270.883 113.036 270.617C109.405 270.296 105.748 270.89 102.433 272.342C100.239 273.3 98.017 274.975 97.8845 277.273C97.7761 279.172 99.161 280.993 98.8118 282.869C98.4645 284.713 96.4976 286.164 96.6702 288.028C96.7364 288.757 97.1278 289.408 97.6175 289.989C97.7861 290.181 97.9648 290.372 98.1494 290.564C98.864 291.286 99.6508 291.98 100.05 292.891C100.066 292.929 100.082 292.967 100.096 293.006C100.436 293.904 100.283 295.041 99.444 295.556C99.4487 295.56 99.4522 295.564 99.4541 295.57C99.4661 295.585 99.4781 295.597 99.4882 295.612C99.4894 295.609 99.4894 295.605 99.4882 295.602C99.7856 295.939 100.187 296.178 100.634 296.285L100.805 296.334C100.666 296.478 100.536 296.628 100.403 296.785L100.317 296.894C100.096 297.178 99.8948 297.476 99.715 297.785C99.6126 297.958 99.5143 298.13 99.432 298.303C99.1569 298.829 98.9577 299.387 98.8399 299.964C98.6251 301.233 98.9282 302.556 98.603 303.797C98.2016 305.331 96.9311 306.507 96.2146 307.931C94.8577 310.614 95.6265 313.763 95.8994 316.726C96.2708 320.751 95.6686 324.793 95.0685 328.791C94.75 330.917 94.4316 333.045 94.1131 335.175C93.3102 340.52 92.5074 345.866 91.7045 351.212C91.4115 353.171 91.0643 355.237 89.6974 356.749H89.7115C89.7115 356.749 89.7115 356.76 89.6974 356.764C90.1077 356.935 90.5441 357.043 90.99 357.082C92.7743 357.253 94.6651 356.429 96.2708 355.528C97.5424 354.826 98.7466 354.019 99.8695 353.115C99.705 353.69 99.5283 354.317 99.3397 354.991C99.3403 354.998 99.3403 355.004 99.3397 355.011C97.0736 363.252 93.4287 378.359 93.4287 378.359C93.4287 378.359 93.0975 379.017 92.668 379.996H149.269C148.607 379.23 147.99 378.496 147.509 377.903L147.314 377.637ZM105.405 301.436C105.419 301.413 105.429 301.392 105.443 301.371C105.443 301.432 105.443 301.492 105.443 301.549C105.443 301.607 105.443 301.659 105.443 301.712C105.443 301.766 105.443 301.76 105.443 301.787C105.443 301.814 105.443 301.787 105.443 301.787C105.443 301.866 105.425 301.944 105.411 302.023C105.411 302.023 105.411 302.032 105.411 302.04L105.612 302.111L105.845 302.203C107.22 302.722 108.613 303.191 110.024 303.611C110.168 303.656 110.315 303.698 110.461 303.738L110.491 303.976C110.527 304.219 110.561 304.466 110.594 304.713C110.594 304.713 110.594 304.725 110.594 304.733C110.684 305.417 110.772 306.099 110.851 306.766C110.851 306.766 107.165 305.425 107.212 307.462C107.209 307.498 107.209 307.535 107.212 307.571C107.208 307.62 107.208 307.668 107.212 307.717C107.246 309.304 107.766 310.245 107.87 310.728C107.864 310.748 107.853 310.766 107.838 310.781C107.749 310.966 107.718 311.172 107.75 311.373C107.746 311.716 107.774 312.059 107.834 312.397C107.725 312.46 107.619 312.523 107.513 312.588C107.432 312.636 107.356 312.69 107.278 312.744C106.785 311.113 106.141 309.527 105.353 308.006C104.801 306.921 104.181 305.791 104.187 304.6C104.187 304.524 104.187 304.445 104.197 304.367C104.219 304.022 104.288 303.681 104.402 303.353C104.448 303.228 104.498 303.106 104.554 302.985C104.685 302.698 104.832 302.418 104.994 302.145C105.098 301.965 105.208 301.787 105.315 301.607C105.349 301.553 105.381 301.498 105.413 301.444L105.405 301.436ZM195.525 259.528C195.497 259.482 195.477 259.436 195.455 259.394C195.455 259.374 195.435 259.359 195.427 259.34C195.383 259.36 195.338 259.377 195.292 259.392C195.204 259.424 195.114 259.455 195.021 259.48C194.929 259.505 194.891 259.518 194.821 259.534L194.642 259.578L194.658 259.612C194.732 259.597 194.805 259.583 194.879 259.564L194.899 259.802C194.983 259.802 195.062 259.79 195.138 259.79H195.246C195.403 259.79 195.539 259.79 195.648 259.79C195.605 259.704 195.561 259.614 195.525 259.528Z" fill="url(#paint1_linear)"/>
<path d="M151.669 287.678L150.465 288.186C150.465 288.186 142.615 317.305 142.615 319.659C142.615 322.012 159.26 335.108 159.26 335.108L161.858 318.369C161.858 318.369 158.128 279.983 151.669 287.678Z" fill="#E8F5FF"/>
<path d="M188.181 278.415L181.226 274.95C180.837 273.364 180.146 271.861 179.187 270.513C178.17 269.11 176.817 267.732 175.131 267.014C170.87 265.189 193.155 255.612 193.155 255.612C193.506 256.763 193.919 257.895 194.393 259.005C195.541 261.711 197.446 265.21 199.901 266.207C204.073 267.903 188.181 278.415 188.181 278.415Z" fill="#FFC1C7"/>
<path opacity="0.1" d="M194.393 259.005C193.441 262.202 191.461 265.034 188.732 267.099C186.004 269.164 182.665 270.358 179.187 270.513C178.17 269.11 176.817 267.732 175.131 267.014C170.87 265.189 193.155 255.612 193.155 255.612C193.506 256.763 193.919 257.895 194.393 259.005Z" fill="black"/>
<path d="M195.019 254.169C195.02 257.305 194.047 260.371 192.223 262.979C190.399 265.587 187.805 267.62 184.771 268.821C181.737 270.021 178.398 270.336 175.177 269.724C171.955 269.112 168.996 267.603 166.674 265.385C164.351 263.168 162.769 260.342 162.129 257.266C161.488 254.191 161.817 251.002 163.074 248.105C164.331 245.208 166.459 242.731 169.19 240.989C171.921 239.247 175.132 238.317 178.416 238.318C180.599 238.308 182.763 238.711 184.782 239.505C186.8 240.298 188.635 241.465 190.178 242.939C191.722 244.413 192.945 246.164 193.776 248.092C194.606 250.019 195.029 252.085 195.019 254.169Z" fill="#FFC1C7"/>
<path d="M197.416 276.38L192.888 286.468L188.894 293.165H176.108L172.379 284.009L173.89 274.515H183.655L189.959 274.176L192.089 273.497L193.462 274.241L197.416 276.38Z" fill="#575A89"/>
<path opacity="0.1" d="M195.856 262.932C195.856 262.932 198.68 263.506 196.151 265.486C193.622 267.466 184.897 273.762 184.897 273.762C184.897 273.762 187.962 276.368 187.328 279.421L197.482 274.017L199.288 265.369C199.288 265.369 199.491 262.771 195.856 262.932Z" fill="black"/>
<path opacity="0.1" d="M186.894 273.762L180.436 274.779C180.436 274.779 181.768 279.484 181.102 280.82C181.082 280.862 181.065 280.905 181.052 280.949L178.416 287.75L180.391 293.092L187.228 284.19L184.897 280.82C184.897 280.82 187.36 277.704 188.825 276.623C190.29 275.542 186.894 273.762 186.894 273.762Z" fill="black"/>
<path d="M186.894 273.499L180.436 274.515C180.436 274.515 181.768 279.22 181.102 280.556C181.082 280.597 181.065 280.64 181.052 280.684L178.416 287.486L180.391 292.827L187.228 283.919L184.897 280.55C184.897 280.55 187.36 277.434 188.825 276.353C190.29 275.272 186.894 273.499 186.894 273.499Z" fill="#DCE6F2"/>
<path d="M196.127 262.424C196.127 262.424 198.951 262.999 196.42 264.978C193.889 266.958 184.897 273.762 184.897 273.762C184.897 273.762 188.227 275.86 187.595 278.911L197.749 273.509L199.555 264.861C199.555 264.861 199.756 262.263 196.127 262.424Z" fill="#575A89"/>
<path opacity="0.1" d="M179.631 271.113C179.631 271.113 180.247 272.213 182.967 274.197C182.967 274.197 178.438 276.497 180.171 279.73L173.244 278.005L172.178 274.825L179.631 271.113Z" fill="black"/>
<path d="M179.364 270.86C179.364 270.86 179.98 271.96 182.7 273.944C182.7 273.944 178.172 276.232 179.904 279.475L172.979 277.75L171.913 274.573L179.364 270.86Z" fill="#575A89"/>
<path opacity="0.1" d="M197.416 276.38L192.888 286.468L188.902 293.165H176.108L172.379 284.009L173.888 274.515H176.604C176.56 276.73 177.407 279.333 177.353 280.301C177.26 281.892 179.837 290.474 179.837 290.474C179.837 290.474 185.231 282.145 187.36 281.403C188.699 280.937 191.535 277.062 193.46 274.241L197.416 276.38Z" fill="black"/>
<path d="M215.253 329.469L214.794 330.021C214.794 330.021 218.123 345.98 217.202 349.604C217.045 350.257 216.956 350.924 216.935 351.593V351.622C216.773 355.309 217.939 360.095 217.939 360.095C217.939 360.095 218.87 374.201 218.34 380.002H155.995C155.629 371.424 155.236 360.31 155.593 359.077C156.195 357.044 157.4 349.667 157.4 349.667L157.532 346.172C157.532 346.172 157.532 342.793 157.641 339.029C157.687 337.336 157.755 335.56 157.853 333.984C157.98 332.003 158.156 330.333 158.399 329.513C158.549 328.891 158.635 328.257 158.656 327.62C158.656 327.56 158.656 327.499 158.668 327.438C158.668 327.246 158.688 327.039 158.696 326.826C158.696 326.767 158.696 326.707 158.696 326.635C158.735 325.4 158.72 323.936 158.678 322.418C158.678 322.336 158.678 322.252 158.678 322.167C158.644 321.029 158.594 319.867 158.538 318.763C158.363 315.314 158.136 312.397 158.136 312.397L150.479 288.172L152.543 283.319L158.269 279.969L168.856 273.865C174.021 269.812 177.421 270.299 178.717 270.743C178.843 270.784 178.967 270.832 179.087 270.887C179.127 270.906 179.159 270.921 179.189 270.939C179.23 270.957 179.27 270.979 179.308 271.004C178.953 271.167 178.644 271.41 178.408 271.711C178.143 272.054 177.954 272.446 177.852 272.861C177.785 273.119 177.737 273.381 177.71 273.645C177.684 273.923 177.674 274.21 177.674 274.5C177.688 275.134 177.745 275.767 177.844 276.395C177.844 276.407 177.844 276.422 177.844 276.437C177.911 276.886 177.993 277.325 178.073 277.737C178.072 277.744 178.072 277.751 178.073 277.758C178.165 278.239 178.258 278.683 178.32 279.067C178.332 279.136 178.342 279.199 178.352 279.258C178.396 279.512 178.417 279.768 178.414 280.025C178.437 280.645 178.524 281.261 178.675 281.865C178.727 282.118 178.788 282.388 178.854 282.67C178.944 283.053 179.043 283.471 179.149 283.896C179.207 284.13 179.269 284.372 179.334 284.611C179.358 284.707 179.384 284.803 179.408 284.901L179.448 285.052C179.876 286.675 180.339 288.291 180.624 289.268C180.793 289.843 180.899 290.198 180.899 290.198C180.899 290.198 183.922 285.531 186.334 282.875C186.371 282.836 186.403 282.8 186.437 282.766C186.676 282.503 186.911 282.263 187.135 282.053C187.627 281.585 188.069 281.252 188.424 281.129C188.5 281.102 188.573 281.07 188.643 281.031C189.63 280.496 191.224 278.555 192.715 276.522C192.862 276.33 193.004 276.121 193.149 275.924C193.48 275.467 193.801 275.009 194.104 274.571C194.337 274.235 194.56 273.909 194.77 273.599C195.774 272.108 196.481 270.996 196.481 270.996L197.873 270.937L198.116 270.925H198.279L204.603 270.646C204.603 270.646 204.876 270.69 205.326 270.776C205.35 270.776 205.374 270.776 205.4 270.791C207.644 271.217 213.878 272.564 214.26 274.433C214.725 276.721 224.781 279.774 224.781 279.774C224.913 281.307 227.376 282.317 227.376 282.317C227.376 282.317 231.105 291.727 230.108 295.415C229.122 299.056 232.673 308.064 232.767 308.317L232.087 309.137L215.253 329.469Z" fill="#E8F5FF"/>
<path opacity="0.1" d="M195.854 262.263C195.854 262.263 202.01 260.595 203.409 264.028C204.808 267.46 207.937 281.322 207.937 281.322C207.937 281.322 199.812 282.785 197.683 281.322C196.434 280.454 194.888 280.068 193.353 280.241L188.759 283.229L187.402 282.846C187.402 282.846 194.752 272.412 196.35 268.867C197.948 265.321 198.488 263.736 195.854 262.263Z" fill="black"/>
<path d="M195.587 261.496C195.587 261.496 201.747 259.829 203.152 263.261C204.557 266.694 207.68 280.556 207.68 280.556C207.68 280.556 199.557 282.018 197.426 280.556C196.178 279.688 194.632 279.302 193.099 279.475L188.5 282.463L187.143 282.079C187.143 282.079 194.493 271.646 196.091 268.1C197.689 264.555 198.221 262.974 195.587 261.496Z" fill="#E8F5FF"/>
<path opacity="0.1" d="M154.267 316.797C154.267 316.797 158.861 317.878 159.728 320.358C160.595 322.838 156.332 322.901 156.332 322.901C156.332 322.901 153.735 318.514 154.267 316.797Z" fill="black"/>
<path opacity="0.1" d="M171.379 335.108C171.379 335.108 160.127 357.107 162.725 359.206C165.322 361.304 171.379 335.108 171.379 335.108Z" fill="black"/>
<path opacity="0.1" d="M186.894 318.896C186.894 318.896 195.884 340.265 194.086 343.565C192.288 346.865 197.948 343.565 197.948 343.565L186.894 318.896Z" fill="black"/>
<path d="M199.413 340.004C199.413 340.004 169.049 341.403 177.907 350.432C186.764 359.461 204.941 350.815 204.941 350.815L199.413 340.004Z" fill="#FFC1C7"/>
<path opacity="0.1" d="M195.019 254.169C195.022 256.249 194.594 258.308 193.761 260.229C193.482 260.26 193.203 260.279 192.934 260.291C192.533 259.449 192.747 258.478 192.755 257.552C192.763 256.626 192.406 255.538 191.473 255.288C189.612 254.788 188.328 258.11 186.493 257.51C185.088 257.054 185.455 255.018 184.646 253.843C184.006 252.914 182.724 252.651 181.726 252.069C179.605 250.825 179.669 248.836 178.683 246.954C177.652 244.981 175.472 245.564 173.579 246.727C172.142 247.613 170.902 248.799 169.364 249.504C168.034 250.118 166.538 250.34 165.063 250.373C164.155 250.406 163.246 250.315 162.365 250.1C163.401 246.381 165.819 243.149 169.167 241.006C172.515 238.863 176.565 237.956 180.561 238.454C184.558 238.952 188.228 240.821 190.888 243.713C193.548 246.604 195.016 250.321 195.017 254.169H195.019Z" fill="black"/>
<path d="M173.585 246.219C172.146 247.105 170.908 248.289 169.37 248.998C168.04 249.61 166.544 249.832 165.069 249.865C163.263 249.903 161.318 249.6 160.083 248.354C158.949 247.205 158.678 245.436 159.158 243.927C159.638 242.419 160.788 241.167 162.139 240.261C163.489 239.354 165.057 238.728 165.952 237.43C166.426 236.744 166.655 235.935 167.048 235.205C168.307 232.869 171.137 231.604 173.872 231.447C176.608 231.29 179.32 232.068 181.925 232.911C184.53 233.754 187.155 234.682 189.905 234.856C191.13 234.929 192.402 234.856 193.538 235.299C195.065 235.891 196.067 237.308 196.749 238.749C197.514 240.374 197.99 242.149 197.91 243.923C197.741 247.712 195.12 251.43 196.272 255.06C196.577 256.028 197.149 257.021 196.844 257.989C196.398 259.401 194.489 259.723 192.946 259.79C192.545 258.949 192.759 257.975 192.767 257.052C192.775 256.128 192.418 255.037 191.487 254.788C189.624 254.292 188.34 257.607 186.509 257.009C185.114 256.551 185.475 254.518 184.665 253.343C184.024 252.412 182.74 252.151 181.744 251.568C179.623 250.325 179.687 248.335 178.701 246.453C177.662 244.472 175.48 245.054 173.585 246.219Z" fill="#99607E"/>
<path d="M144.143 319.149L142.611 319.658C142.611 319.658 143.213 328.306 141.206 330.786C139.199 333.266 147.798 339.431 147.798 339.431C147.798 339.431 159.583 339.368 159.917 338.473C160.25 337.578 159.315 322.451 159.315 322.451C159.315 322.451 152.988 320.097 153.52 316.347C153.52 316.347 151.589 325.184 148.727 324.802C145.865 324.421 142.615 322.138 144.143 319.149Z" fill="#E8F5FF"/>
<path opacity="0.1" d="M149.251 327.478C151.482 327.478 153.291 325.898 153.291 323.949C153.291 322.001 151.482 320.421 149.251 320.421C147.019 320.421 145.21 322.001 145.21 323.949C145.21 325.898 147.019 327.478 149.251 327.478Z" fill="black"/>
<path d="M153.669 319.404C153.669 319.404 152.866 296.007 145.877 301.22C138.888 306.433 138.82 312.667 140.151 314.509C141.481 316.351 145.748 325.571 145.748 325.571C146.416 325.94 147.166 326.153 147.936 326.193C148.706 326.232 149.475 326.097 150.18 325.798C150.885 325.498 151.506 325.044 151.992 324.472C152.477 323.899 152.814 323.225 152.974 322.505L153.669 319.404Z" fill="#FFC1C7"/>
<path opacity="0.1" d="M197.265 260.139C197.233 260.036 197.17 259.945 197.085 259.875C196.739 259.574 195.997 259.468 194.877 259.56L194.923 260.066C196.416 259.944 196.711 260.227 196.749 260.275V260.323L196.796 260.386C196.982 260.625 197.114 260.899 197.183 261.189C197.252 261.48 197.257 261.781 197.197 262.073C196.87 263.635 194.861 264.879 194.841 264.892L194.792 264.919L194.762 264.963C193.895 266.191 188.992 269.658 187.709 270.555L187.597 270.433C187.023 270.908 181.977 275.126 181.704 276.742C181.527 277.756 180.331 278.149 179.898 278.258C179.44 277.926 177.955 276.797 177.182 275.533C176.457 274.342 179.374 272.02 179.631 271.113L179.229 270.72C179.187 270.866 175.442 274.208 176.483 275.916C177.318 277.286 178.844 278.459 179.378 278.846C179.207 280.326 178.145 289.013 176.514 291.072C174.486 293.63 172.782 306.525 172.971 311.026C173.138 315.026 172.044 322.581 168.391 325.826C167.758 326.412 166.995 326.855 166.159 327.12C165.322 327.386 164.434 327.467 163.56 327.359H163.515H163.471C163.419 327.359 158.12 327.876 153.669 324.293C150.026 321.366 147.962 316.59 147.533 310.093H147.444L147.408 308.202C148.396 308.054 149.286 307.547 149.89 306.787C150.494 306.027 150.767 305.072 150.65 304.124C150.533 303.176 150.035 302.308 149.262 301.703C148.489 301.098 147.5 300.803 146.504 300.879C145.507 300.955 144.581 301.397 143.918 302.112C143.256 302.827 142.91 303.76 142.952 304.713C142.995 305.667 143.423 306.568 144.146 307.226C144.87 307.885 145.833 308.25 146.832 308.246H146.876L146.913 310.126L146.736 310.137C147.177 316.845 149.345 321.807 153.159 324.871C156.057 327.165 159.76 328.322 163.517 328.108C163.784 328.136 164.052 328.15 164.32 328.151C166.043 328.159 167.7 327.523 168.937 326.378C172.784 322.957 173.955 315.124 173.772 310.988C173.571 306.218 175.359 293.787 177.154 291.524C178.912 289.303 179.978 280.648 180.165 278.971C180.801 278.8 182.24 278.262 182.485 276.863C182.661 275.851 186.031 272.733 188.105 271.006L188.043 270.937C189.158 270.159 192.629 267.706 194.349 266.13C194.883 265.641 195.413 265.153 195.967 264.687C196.633 264.124 197.48 263.229 197.703 262.171C197.779 261.821 197.779 261.461 197.704 261.112C197.629 260.762 197.479 260.431 197.265 260.139Z" fill="black"/>
<path d="M179.31 278.726C179.225 278.67 177.226 277.303 176.225 275.659C175.185 273.951 178.93 270.611 178.97 270.465L179.372 270.858C179.117 271.763 176.201 274.088 176.925 275.276C177.838 276.776 179.761 278.089 179.781 278.103L179.31 278.726Z" fill="#353146"/>
<path d="M187.448 270.927L187.135 270.515C187.2 270.471 193.504 266.117 194.498 264.708L194.53 264.666L194.576 264.637C194.596 264.624 196.605 263.382 196.932 261.818C196.993 261.526 196.988 261.225 196.919 260.935C196.85 260.645 196.717 260.372 196.531 260.133L196.485 260.068V260.022C196.444 259.972 196.149 259.691 194.656 259.813L194.61 259.306C195.732 259.214 196.473 259.319 196.818 259.62C196.904 259.69 196.967 259.783 197 259.886C197.217 260.178 197.37 260.508 197.448 260.858C197.526 261.208 197.528 261.569 197.454 261.92C197.231 262.979 196.386 263.874 195.718 264.436C195.166 264.902 194.634 265.394 194.102 265.879C192.085 267.725 187.669 270.776 187.448 270.927Z" fill="#E8F5FF"/>
<path d="M147.149 307.534L146.618 307.544L146.677 310.631L147.209 310.621L147.149 307.534Z" fill="#E8F5FF"/>
<path d="M146.573 308.002C148.718 308.002 150.457 306.342 150.457 304.294C150.457 302.246 148.718 300.585 146.573 300.585C144.428 300.585 142.69 302.246 142.69 304.294C142.69 306.342 144.428 308.002 146.573 308.002Z" fill="#6C63FF"/>
<path d="M146.573 307.374C148.355 307.374 149.799 305.995 149.799 304.294C149.799 302.593 148.355 301.214 146.573 301.214C144.792 301.214 143.348 302.593 143.348 304.294C143.348 305.995 144.792 307.374 146.573 307.374Z" fill="#E8F5FF"/>
<path d="M164.067 327.903C163.799 327.904 163.531 327.89 163.265 327.863C159.507 328.074 155.805 326.918 152.906 324.626C149.092 321.56 146.929 316.604 146.483 309.89L147.286 309.842C147.715 316.339 149.779 321.117 153.424 324.042C157.875 327.616 163.172 327.108 163.224 327.108H163.269H163.313C164.187 327.216 165.076 327.134 165.913 326.868C166.749 326.603 167.513 326.161 168.146 325.575C171.797 322.33 172.891 314.775 172.724 310.775C172.523 306.27 174.228 293.375 176.257 290.819C178.033 288.578 179.135 278.48 179.147 278.379L179.177 278.091L179.474 278.041C179.492 278.041 181.226 277.727 181.443 276.489C181.724 274.875 186.762 270.657 187.334 270.18L187.858 270.755C185.777 272.48 182.407 275.6 182.238 276.614C181.993 278.016 180.554 278.553 179.92 278.722C179.719 280.401 178.661 289.054 176.909 291.275C175.115 293.538 173.326 305.969 173.527 310.739C173.7 314.875 172.542 322.71 168.694 326.129C167.455 327.276 165.794 327.914 164.067 327.903Z" fill="#353146"/>
<g opacity="0.1">
<path opacity="0.1" d="M196.729 249.638C197.059 248.477 197.456 247.308 197.733 246.131C197.402 247.314 197.002 248.477 196.729 249.638Z" fill="black"/>
<path opacity="0.1" d="M193.371 258.765C192.97 257.924 193.185 256.95 193.193 256.026C193.201 255.102 192.844 254.022 191.912 253.763C190.05 253.266 188.765 256.584 186.935 255.984C185.53 255.526 185.901 253.493 185.09 252.318C184.45 251.386 183.167 251.126 182.172 250.543C180.048 249.299 180.112 247.31 179.129 245.428C178.095 243.454 175.918 244.037 174.023 245.202C172.584 246.087 171.345 247.274 169.808 247.981C168.477 248.592 166.982 248.814 165.507 248.847C163.71 248.887 161.755 248.582 160.521 247.337C159.569 246.379 159.226 244.974 159.423 243.657C159.389 243.747 159.359 243.837 159.329 243.927C158.847 245.436 159.128 247.208 160.254 248.354C161.488 249.6 163.443 249.903 165.24 249.865C166.717 249.832 168.21 249.61 169.543 248.998C171.084 248.289 172.323 247.105 173.758 246.219C175.653 245.054 177.832 244.472 178.864 246.446C179.847 248.328 179.785 250.317 181.907 251.561C182.91 252.136 184.185 252.404 184.827 253.335C185.63 254.514 185.275 256.544 186.672 257.002C188.5 257.6 189.785 254.284 191.647 254.781C192.579 255.03 192.938 256.122 192.928 257.044C192.918 257.966 192.709 258.941 193.107 259.783C194.65 259.716 196.559 259.399 197.006 257.981C197.068 257.778 197.096 257.566 197.091 257.354C196.438 258.43 194.76 258.706 193.371 258.765Z" fill="black"/>
</g>
<path opacity="0.1" d="M229.646 305.988L231.977 308.341C231.977 308.341 233.841 321.311 234.772 322.524C235.704 323.737 237.904 328.563 235.838 332.187C235.838 332.187 235.172 334.159 235.571 334.985C235.971 335.811 232.577 339.945 232.577 339.945C232.577 339.945 228.115 343.759 227.182 344.332C226.248 344.905 221.323 349.481 219.659 349.545C217.995 349.608 217.451 351.58 217.451 351.58L208.062 351.898C208.062 351.898 202.875 351.639 201.747 352.339C201.747 352.339 202.349 344.773 196.555 339.813L203.945 337.269C203.945 337.269 206.743 336.119 207.608 334.918C208.152 334.181 208.924 333.626 209.816 333.329C209.816 333.329 211.879 331.93 211.945 331.167C212.012 330.404 214.468 329.469 214.468 329.469L213.077 318.133L213.81 299.313C213.81 299.313 216.14 283.544 221.068 284.435C225.995 285.326 229.646 305.988 229.646 305.988Z" fill="black"/>
<path d="M230.449 305.988L232.779 308.341C232.779 308.341 234.644 321.311 235.575 322.524C236.507 323.737 238.706 328.563 236.641 332.187C236.641 332.187 235.977 334.159 236.376 334.985C236.776 335.811 233.38 339.945 233.38 339.945C233.38 339.945 228.918 343.759 227.984 344.332C227.051 344.905 222.126 349.481 220.462 349.545C218.798 349.608 218.254 351.58 218.254 351.58L208.864 351.898C208.864 351.898 203.674 351.639 202.55 352.339C202.55 352.339 203.152 344.773 197.358 339.813L204.748 337.269C204.748 337.269 207.546 336.119 208.411 334.918C208.955 334.181 209.727 333.626 210.619 333.329C210.619 333.329 212.682 331.93 212.748 331.167C212.814 330.404 215.271 329.469 215.271 329.469L213.88 318.133L214.613 299.313C214.613 299.313 216.943 283.544 221.871 284.435C226.798 285.326 230.449 305.988 230.449 305.988Z" fill="#E8F5FF"/>
<path opacity="0.1" d="M221.786 325C221.786 325 228.645 323.275 230.443 325.383C232.242 327.491 221.786 325 221.786 325Z" fill="black"/>
<path opacity="0.1" d="M220.189 327.892C222.519 329.45 229.711 329.513 229.711 329.513L220.189 327.892Z" fill="black"/>
<path opacity="0.1" d="M223.717 335.681C223.918 335.744 228.661 340.577 230.652 339.115C232.643 337.653 223.717 335.681 223.717 335.681Z" fill="black"/>
<path opacity="0.1" d="M159.842 295.116C159.842 295.116 161.235 304.273 160.549 308.002C159.862 311.732 162.367 316.353 162.367 316.353L159.842 295.116Z" fill="black"/>
<path d="M129.005 298.839C127.399 300.041 126.227 302.885 125.378 306.011C123.897 311.463 123.413 317.786 123.413 317.786C123.413 317.786 110.628 314.988 111.559 313.717C112.145 312.918 111.358 306.896 110.702 302.531C110.311 299.951 109.961 297.948 109.961 297.948C109.961 297.948 133.401 295.531 129.005 298.839Z" fill="#FFCCD0"/>
<path opacity="0.1" d="M129.005 298.584C127.399 299.788 126.227 302.63 125.378 305.756C122.831 306.495 120.122 306.561 117.538 305.949C114.954 305.336 112.592 304.068 110.702 302.278C110.311 299.696 109.961 297.693 109.961 297.693C109.961 297.693 133.401 295.278 129.005 298.584Z" fill="black"/>
<path d="M135.877 291.735C135.879 295.068 134.645 298.295 132.394 300.843C130.144 303.391 127.022 305.097 123.581 305.659C120.14 306.221 116.601 305.602 113.592 303.912C110.583 302.223 108.297 299.571 107.138 296.426C105.98 293.282 106.024 289.847 107.262 286.731C108.501 283.614 110.854 281.016 113.906 279.397C116.957 277.778 120.51 277.242 123.936 277.883C127.362 278.525 130.439 280.303 132.624 282.904C134.729 285.408 135.877 288.523 135.877 291.735Z" fill="#FFCCD0"/>
<path opacity="0.1" d="M147.535 380.002H143.32L142.965 372.894L142.593 365.536C142.593 365.536 143.551 365.4 145.076 365.197L145.692 365.118H145.742C146.076 366.611 146.405 368.144 146.722 369.676C147.25 372.394 147.524 375.152 147.543 377.917C147.543 378.108 147.543 378.3 147.543 378.48C147.555 378.992 147.543 379.504 147.535 380.002Z" fill="black"/>
<path d="M146.726 380.002H93.8662C94.095 379.506 94.2475 379.205 94.2475 379.205C94.2475 379.205 98.4766 361.538 100.626 354.064C100.627 354.057 100.627 354.051 100.626 354.045C100.895 353.029 101.219 352.028 101.598 351.045C101.622 350.978 101.654 350.914 101.692 350.854C102.756 349.202 104.088 347.421 102.224 344.878C100.359 342.335 101.02 331.144 101.02 331.144C101.02 331.144 103.284 321.606 105.68 316.519C106.044 315.731 106.56 315.016 107.202 314.411C107.41 314.216 107.633 314.036 107.868 313.871C108.047 313.742 108.233 313.624 108.426 313.516L108.464 313.493C109.471 312.948 110.589 312.617 111.742 312.521C112.561 312.44 113.387 312.461 114.2 312.586C118.086 313.131 121.197 314.041 123.67 315.078C130.372 317.889 132.401 321.657 132.441 321.736L132.457 321.769C132.726 322.368 136.66 331.138 138.077 335.23C138.444 336.296 138.645 337.045 138.565 337.25C138.163 338.266 141.628 350.982 141.628 350.982C141.628 350.982 143.233 357.115 144.839 364.304C144.909 364.603 144.976 364.902 145.04 365.204C145.327 366.51 145.612 367.84 145.887 369.168C146.42 371.905 146.694 374.682 146.708 377.466C146.737 378.334 146.743 379.179 146.726 380.002Z" fill="#FF748E"/>
<path opacity="0.1" d="M111.427 308.148C111.427 308.148 107.78 306.806 107.824 308.842C107.868 310.877 108.713 311.851 108.446 312.148C108.179 312.445 108.578 314.225 108.578 314.225C108.578 314.225 113.506 314.225 115.77 315.199C118.034 316.172 126.38 318.123 127.445 318.717C128.511 319.312 132.463 321.975 132.463 321.975L132.819 316.931C132.819 316.931 128.734 313.71 122.032 312.058C115.33 310.405 111.427 308.148 111.427 308.148Z" fill="black"/>
<path d="M111.427 307.893C111.427 307.893 107.78 306.551 107.824 308.587C107.868 310.622 108.713 311.596 108.446 311.893C108.179 312.19 108.578 313.97 108.578 313.97C108.578 313.97 113.506 313.97 115.77 314.946C118.034 315.921 126.38 317.87 127.445 318.463C128.511 319.055 132.463 321.721 132.463 321.721L132.822 316.692C132.822 316.692 128.738 313.47 122.036 311.818C115.334 310.166 111.427 307.893 111.427 307.893Z" fill="#FF748E"/>
<path opacity="0.1" d="M122.436 320.032C122.436 320.032 129.404 327.236 129.049 329.231C128.694 331.227 122.436 320.032 122.436 320.032Z" fill="black"/>
<path opacity="0.1" d="M111.115 346.057C111.115 346.057 106.007 350.551 104.502 350.806C102.997 351.061 105.656 351.908 107.386 351.231C109.116 350.555 112.805 348.774 112.805 348.774L111.115 346.057Z" fill="black"/>
<path d="M148.801 380.002H136.889C135.223 378.622 133.647 377.344 132.644 376.575C131.038 375.345 129.88 373.534 129.141 372.077C128.975 371.746 128.83 371.435 128.708 371.153C128.489 370.668 128.296 370.172 128.13 369.668L136.951 364.666C137.439 365.062 137.897 365.49 138.322 365.946L138.428 366.063C138.918 366.615 139.35 367.242 139.388 367.755C139.432 368.353 141.174 370.667 142.954 372.888C144.761 375.147 146.611 377.307 146.734 377.453C146.734 377.453 147.039 377.85 147.537 378.459C147.888 378.9 148.322 379.429 148.801 380.002Z" fill="#FFCCD0"/>
<path opacity="0.1" d="M132.624 282.903C132.2 283.816 131.821 284.762 131.765 285.778C131.606 288.71 131.863 295.267 128.463 296.739C126.779 297.463 124.977 295.873 123.13 295.834C121.801 295.807 120.583 296.612 119.772 297.618C118.961 298.625 118.458 299.819 117.869 300.957C117.334 301.99 116.717 302.983 116.025 303.928C115.818 304.217 115.59 304.491 115.342 304.75C113.269 303.914 111.423 302.638 109.945 301.018C108.466 299.399 107.394 297.478 106.811 295.403C106.228 293.327 106.148 291.152 106.579 289.043C107.009 286.934 107.938 284.947 109.294 283.233C110.651 281.518 112.399 280.122 114.407 279.151C116.414 278.18 118.627 277.659 120.877 277.628C123.127 277.597 125.355 278.056 127.39 278.972C129.426 279.888 131.216 281.235 132.624 282.911V282.903Z" fill="black"/>
<path d="M131.498 285.261C131.337 288.193 131.596 294.749 128.194 296.219C126.51 296.944 124.708 295.355 122.861 295.317C121.532 295.288 120.316 296.095 119.503 297.099C118.69 298.103 118.191 299.299 117.6 300.44C117.065 301.473 116.448 302.466 115.756 303.41C115.342 303.97 114.885 304.531 114.249 304.846C113.141 305.398 111.798 305.087 110.61 304.733C109.068 304.269 107.549 303.746 106.053 303.165C106.088 302.949 106.105 302.731 106.106 302.513C106.061 302.594 106.013 302.668 105.965 302.749L105.871 302.906C105.7 303.194 105.534 303.481 105.381 303.776C105.323 303.889 105.267 304.006 105.216 304.123C105.015 304.558 104.888 305.022 104.841 305.495C104.739 306.774 105.399 307.987 105.985 309.137C108.239 313.585 109.632 318.786 107.936 323.453C107.202 325.483 105.929 327.286 105 329.247C103.375 332.719 102.897 336.582 103.629 340.32C104.093 342.643 105.022 344.943 104.793 347.298C104.392 351.352 100.731 354.368 97.0636 356.442C95.0825 357.557 92.6579 358.55 90.5544 357.669C91.8952 356.174 92.2404 354.106 92.5295 352.155C93.3203 346.833 94.1131 341.509 94.9079 336.183C95.225 334.063 95.5415 331.943 95.8573 329.824C96.4474 325.841 97.0455 321.814 96.6762 317.807C96.4072 314.854 95.6485 311.718 96.9893 309.045C97.6978 307.628 98.9603 306.455 99.3537 304.93C99.6768 303.69 99.3758 302.371 99.5885 301.108C99.705 300.534 99.9021 299.977 100.175 299.453C100.522 298.741 100.975 298.081 101.519 297.494C100.981 297.344 100.48 297.139 100.175 296.71C101.038 296.173 101.168 294.964 100.777 294.056C100.385 293.147 99.6026 292.455 98.8981 291.739C98.1936 291.022 97.5152 290.186 97.4268 289.209C97.2562 287.348 99.2031 285.907 99.5464 284.071C99.8936 282.202 98.5207 280.385 98.6311 278.494C98.7596 276.207 100.959 274.545 103.131 273.581C106.408 272.133 110.028 271.538 113.624 271.857C116.551 272.121 119.383 272.985 122.301 273.321C124.061 273.512 125.846 273.532 127.594 273.827C129.342 274.122 131.094 274.745 132.325 275.969C135.568 279.199 131.682 281.857 131.498 285.261Z" fill="#FFE0D0"/>
<path opacity="0.1" d="M128.784 372.079C127.761 371.655 125.898 371.908 122.701 370.979C119.503 370.049 118.887 365.848 118.887 365.848V365.835C118.849 365.739 118.552 365.114 116.541 362.926C114.319 360.509 109.516 348.303 109.516 348.303C109.516 348.303 105.257 343.935 105.391 342.325C105.526 340.715 104.634 336.432 104.723 331.64C104.811 326.849 114.311 323.672 114.311 323.672C132.602 320.576 128.294 340.711 127.807 342.237C127.319 343.762 129.85 347.883 129.85 347.883C129.493 349.677 131.315 352.454 131.315 352.454C131.315 352.454 131.757 354.911 131.847 355.844C131.852 355.887 131.862 355.93 131.877 355.971C132.17 356.85 134.559 357.648 135.53 358.132C136.552 358.642 139.837 363.092 139.837 363.092C140.546 366.36 129.804 372.508 128.784 372.079Z" fill="black"/>
<path d="M129.316 371.312C128.294 370.887 126.43 371.142 123.234 370.21C120.039 369.279 119.421 365.082 119.421 365.082V365.068C119.385 364.971 119.086 364.348 117.075 362.159C114.853 359.742 110.05 347.534 110.05 347.534C110.05 347.534 105.791 343.168 105.923 341.558C106.055 339.949 105.168 335.665 105.257 330.878C105.345 326.09 114.839 322.915 114.839 322.915C133.13 319.819 128.822 339.954 128.335 341.48C127.847 343.005 130.378 347.126 130.378 347.126C130.021 348.92 131.843 351.697 131.843 351.697C131.843 351.697 132.285 354.154 132.377 355.087C132.38 355.13 132.39 355.173 132.405 355.214C132.698 356.093 135.087 356.891 136.06 357.375C137.08 357.883 140.367 362.335 140.367 362.335C141.08 365.597 130.338 371.746 129.316 371.312Z" fill="#FF748E"/>
<path opacity="0.1" d="M115.2 333.427C115.2 333.427 123.19 341.476 125.276 341.476C127.361 341.476 115.2 333.427 115.2 333.427Z" fill="black"/>
<path d="M129.316 371.312C128.294 370.887 126.43 371.142 123.234 370.21C120.039 369.279 119.421 365.082 119.421 365.082V365.068C121.538 363.727 126.901 359.938 129.015 358.552C130.502 357.581 131.717 356.153 132.427 355.206C132.72 356.086 135.109 356.883 136.082 357.368C137.102 357.876 140.389 362.328 140.389 362.328C141.08 365.597 130.338 371.746 129.316 371.312Z" fill="#FF748E"/>
<g opacity="0.1">
<path opacity="0.1" d="M100.187 296.731C100.197 296.746 100.211 296.76 100.223 296.775C100.283 296.702 100.345 296.63 100.409 296.561C100.341 296.624 100.266 296.681 100.187 296.731Z" fill="black"/>
<path opacity="0.1" d="M104.843 305.517C104.927 304.453 105.524 303.516 106.082 302.58C105.716 302.446 105.351 302.31 104.99 302.168C105.024 301.953 105.042 301.736 105.042 301.519C104.478 302.477 103.864 303.42 103.777 304.499C103.675 305.779 104.335 306.99 104.921 308.14C107.177 312.587 108.568 317.788 106.872 322.457C106.136 324.484 104.865 326.29 103.936 328.25C102.312 331.722 101.835 335.584 102.567 339.322C103.027 341.647 103.958 343.945 103.729 346.3C103.328 350.353 99.6688 353.37 95.9998 355.442C94.5005 356.289 92.7482 357.065 91.0723 357.009C90.9171 357.248 90.7441 357.475 90.5544 357.69C92.6599 358.577 95.0825 357.579 97.0636 356.459C100.735 354.39 104.402 351.381 104.803 347.32C105.032 344.964 104.101 342.666 103.639 340.342C102.906 336.604 103.382 332.743 105.004 329.27C105.927 327.311 107.212 325.504 107.94 323.476C109.636 318.808 108.243 313.606 105.989 309.16C105.405 308.002 104.741 306.797 104.843 305.517Z" fill="black"/>
<path opacity="0.1" d="M132.321 275.993C132.123 275.799 131.911 275.62 131.686 275.456C134.119 278.469 130.607 281.029 130.432 284.272C130.275 287.204 130.532 293.763 127.13 295.231C125.448 295.957 123.644 294.366 121.799 294.328C120.469 294.301 119.252 295.108 118.439 296.112C117.627 297.116 117.127 298.312 116.539 299.451C116.002 300.484 115.385 301.477 114.692 302.421C114.291 302.983 113.821 303.543 113.183 303.859C112.079 304.409 110.736 304.1 109.546 303.744C108.388 303.396 107.242 303.013 106.106 302.594C106.103 302.793 106.086 302.993 106.053 303.19C107.551 303.772 109.07 304.295 110.612 304.758C111.8 305.114 113.143 305.423 114.249 304.873C114.885 304.556 115.346 303.995 115.758 303.433C116.451 302.49 117.068 301.498 117.602 300.465C118.193 299.326 118.69 298.128 119.505 297.124C120.32 296.12 121.534 295.315 122.863 295.342C124.71 295.38 126.514 296.971 128.196 296.244C131.598 294.776 131.339 288.218 131.498 285.286C131.682 281.876 135.568 279.22 132.321 275.993Z" fill="black"/>
</g>
<path opacity="0.1" d="M105.873 302.908C105.702 303.196 105.536 303.483 105.383 303.778C105.325 303.891 105.269 304.008 105.219 304.125C104.167 303.113 101.606 300.708 100.177 299.962C100.524 299.251 100.977 298.592 101.521 298.004C101.521 298.004 104.927 299.723 105.873 302.908Z" fill="black"/>
<path d="M105.967 302.751C105.178 299.342 101.521 297.496 101.521 297.496C100.977 298.084 100.524 298.743 100.177 299.455C101.684 300.242 104.462 302.883 105.383 303.778L105.967 302.751Z" fill="#FF748E"/>
</g>
<defs>
<filter id="filter0_d" x="-179" y="0" width="718" height="650" filterUnits="userSpaceOnUse" color-interpolation-filters="sRGB">
<feFlood flood-opacity="0" result="BackgroundImageFix"/>
<feColorMatrix in="SourceAlpha" type="matrix" values="0 0 0 0 0 0 0 0 0 0 0 0 0 0 0 0 0 0 127 0"/>
<feOffset dx="20" dy="20"/>
<feGaussianBlur stdDeviation="125"/>
<feColorMatrix type="matrix" values="0 0 0 0 0 0 0 0 0 0.670588 0 0 0 0 0.568627 0 0 0 0.75 0"/>
<feBlend mode="normal" in2="BackgroundImageFix" result="effect1_dropShadow"/>
<feBlend mode="normal" in="SourceGraphic" in2="effect1_dropShadow" result="shape"/>
</filter>
<linearGradient id="paint0_linear" x1="197.526" y1="248.285" x2="197.526" y2="244.763" gradientUnits="userSpaceOnUse">
<stop stop-color="#808080" stop-opacity="0.25"/>
<stop offset="0.54" stop-color="#808080" stop-opacity="0.12"/>
<stop offset="1" stop-color="#808080" stop-opacity="0.1"/>
</linearGradient>
<linearGradient id="paint1_linear" x1="92132.4" y1="126433" x2="92132.4" y2="9029.17" gradientUnits="userSpaceOnUse">
<stop stop-color="#808080" stop-opacity="0.25"/>
<stop offset="0.54" stop-color="#808080" stop-opacity="0.12"/>
<stop offset="1" stop-color="#808080" stop-opacity="0.1"/>
</linearGradient>
<clipPath id="clip0">
<rect width="218" height="150" fill="white" transform="translate(51 230)"/>
</clipPath>
</defs>
</svg>
